ply
format ascii 1.0
element vertex 541
property float x
property float y
property float z
element face 1764
property list uchar int vertex_index
end_header
0.64587 -8.91537 -1.18437
0.64587 -8.91537 -1.08437
0.64587 -8.91537 -0.984365
0.64587 -8.91537 -0.884365
0.64587 -8.91537 -0.784365
0.628653 -8.91537 -0.713074
0.529903 -8.91537 -0.864008
0.472504 -8.91537 -1.02437
0.463726 -8.91537 -1.26923
0.50695 -8.91537 -1.42776
0.605069 -8.91537 -1.60238
0.64587 -8.91537 -1.64627
0.64587 -8.91537 -1.57083
0.64587 -8.91537 -1.47083
0.64587 -8.91537 -1.37083
0.64587 -8.91537 -1.28437
0.012279 -6.55411 2.92257
-0.002608 -6.55411 3.02289
-0.033507 -6.55411 3.11938
-0.079206 -6.55411 3.20893
-0.215896 -6.55411 3.35817
-0.355603 -6.55411 3.43267
-0.440707 -6.55411 3.4541
-0.575195 -6.55411 3.45672
-0.710615 -6.55411 3.41828
-0.824803 -6.55411 3.34269
-0.91347 -6.55411 3.23436
-0.968888 -6.55411 3.10128
-0.985023 -6.55411 3.00001
-0.97901 -6.55411 2.86731
-0.964158 -6.55411 2.79529
-0.928847 -6.55411 2.69817
-0.877891 -6.55411 2.60819
-0.813553 -6.55411 2.52941
-0.662566 -6.55411 2.41876
-0.601495 -6.55411 2.39415
-0.438036 -6.55411 2.36918
-0.37147 -6.55411 2.37671
-0.222132 -6.55411 2.43341
-0.166758 -6.55411 2.47364
-0.0597 -6.55411 2.60107
-0.029444 -6.55411 2.66305
0.012327 -6.55411 2.83765
0.902 -6.55411 -0.894832
0.899812 -6.55411 -0.878368
0.850736 -6.55411 -0.709001
0.773589 -6.55411 -0.556803
0.673914 -6.55411 -0.417482
0.596177 -6.55411 -0.331463
0.543363 -6.55411 -0.281727
0.367636 -6.55411 -0.159575
0.321037 -6.55411 -0.134333
0.103817 -6.55411 -0.056842
0.06939 -6.55411 -0.048708
-0.170585 -6.55411 -0.030737
-0.185736 -6.55411 -0.031067
-0.357753 -6.55411 -0.058296
-0.518296 -6.55411 -0.116141
-0.662003 -6.55411 -0.202089
-0.784256 -6.55411 -0.312728
-0.881321 -6.55411 -0.443935
-0.950411 -6.55411 -0.591074
-0.990462 -6.55411 -0.757087
-0.990895 -6.55411 -0.990944
-0.98862 -6.55411 -1.00802
-0.926095 -6.55411 -1.22944
-0.91605 -6.55411 -1.25372
-0.800691 -6.55411 -1.44631
-0.778031 -6.55411 -1.47612
-0.624056 -6.55411 -1.62733
-0.584681 -6.55411 -1.65829
-0.408523 -6.55411 -1.7607
-0.350462 -6.55411 -1.78605
-0.168703 -6.55411 -1.83767
-0.096262 -6.55411 -1.84905
0.247157 -6.55411 -1.8262
0.258399 -6.55411 -1.82337
0.484398 -6.55411 -1.73378
0.503972 -6.55411 -1.72295
0.682657 -6.55411 -1.58416
0.703327 -6.55411 -1.56308
0.826496 -6.55411 -1.38583
0.841121 -6.55411 -1.35682
0.902885 -6.55411 -1.15083
0.90751 -6.55411 -1.12056
0.182818 -4.19286 1.49033
0.16385 -4.19286 1.5993
0.130123 -4.19286 1.7015
0.082791 -4.19286 1.79394
0.023292 -4.19286 1.87399
-0.094564 -4.19286 1.97089
-0.168921 -4.19286 2.00444
-0.303592 -4.19286 2.02601
-0.43894 -4.19286 2.00053
-0.511668 -4.19286 1.96486
-0.568974 -4.19286 1.92489
-0.644396 -4.19286 1.84906
-0.70744 -4.19286 1.75632
-0.755596 -4.19286 1.65029
-0.787048 -4.19286 1.53513
-0.800737 -4.19286 1.41534
-0.796378 -4.19286 1.29554
-0.77446 -4.19286 1.18021
-0.731388 -4.19286 1.0617
-0.687645 -4.19286 0.982916
-0.638276 -4.19286 0.917777
-0.492376 -4.19286 0.806479
-0.37242 -4.19286 0.771581
-0.315191 -4.19286 0.768065
-0.263001 -4.19286 0.772665
-0.12346 -4.19286 0.82054
-0.046182 -4.19286 0.872239
0.042652 -4.19286 0.963731
0.107156 -4.19286 1.06464
0.145489 -4.19286 1.15659
0.173759 -4.19286 1.26542
0.18624 -4.19286 1.37787
0.481415 -4.19286 -0.141895
0.46471 -4.19286 -0.087201
0.378619 -4.19286 0.091055
0.350444 -4.19286 0.134703
0.216764 -4.19286 0.284435
0.180727 -4.19286 0.315916
0.009569 -4.19286 0.423476
-0.031375 -4.19286 0.442565
-0.248329 -4.19286 0.502178
-0.305652 -4.19286 0.507865
-0.351639 -4.19286 0.51064
-0.570195 -4.19286 0.487389
-0.634216 -4.19286 0.469525
-0.674782 -4.19286 0.45625
-0.852475 -4.19286 0.366119
-0.892737 -4.19286 0.338991
-1.03725 -4.19286 0.205731
-1.07122 -4.19286 0.16564
-1.17271 -4.19286 0.001463
-1.19665 -4.19286 -0.050674
-1.24962 -4.19286 -0.232651
-1.26519 -4.19286 -0.394887
-1.26376 -4.19286 -0.461088
-1.23597 -4.19286 -0.63283
-1.18023 -4.19286 -0.788462
-1.09747 -4.19286 -0.931128
-0.990394 -4.19286 -1.05603
-0.83693 -4.19286 -1.17455
-0.718609 -4.19286 -1.23614
-0.561206 -4.19286 -1.28585
-0.397387 -4.19286 -1.30511
-0.232732 -4.19286 -1.29307
-0.0489 -4.19286 -1.23996
0.059989 -4.19286 -1.18729
0.144325 -4.19286 -1.13232
0.26943 -4.19286 -1.02108
0.372433 -4.19286 -0.888018
0.449613 -4.19286 -0.737701
0.49815 -4.19286 -0.575371
0.51615 -4.19286 -0.395852
0.514758 -4.19286 -0.332753
0.602181 -1.8316 0.101575
0.589014 -1.8316 0.164847
0.525291 -1.8316 0.33703
0.495904 -1.8316 0.393092
0.386937 -1.8316 0.541746
0.343916 -1.8316 0.586946
0.198098 -1.8316 0.700155
0.14467 -1.8316 0.731611
-0.02649 -1.8316 0.800431
-0.086613 -1.8316 0.816054
-0.269549 -1.8316 0.835307
-0.332279 -1.8316 0.833845
-0.512606 -1.8316 0.802522
-0.573564 -1.8316 0.783641
-0.639764 -1.8316 0.739683
-0.654451 -1.8316 0.731745
-0.741592 -1.8316 0.682688
-0.922072 -1.8316 0.555584
-1.02344 -1.8316 0.426392
-1.09952 -1.8316 0.280868
-1.15093 -1.8316 0.106124
-1.1665 -1.8316 -0.039193
-1.15511 -1.8316 -0.202953
-1.11394 -1.8316 -0.361843
-1.04433 -1.8316 -0.510494
-0.948597 -1.8316 -0.643858
-0.829934 -1.8316 -0.757387
-0.692323 -1.8316 -0.847185
-0.540404 -1.8316 -0.910144
-0.37933 -1.8316 -0.944055
-0.214587 -1.8316 -0.947697
-0.05181 -1.8316 -0.920882
0.103406 -1.8316 -0.864477
0.245715 -1.8316 -0.780372
0.370199 -1.8316 -0.671431
0.472556 -1.8316 -0.541387
0.549248 -1.8316 -0.394715
0.597633 -1.8316 -0.236469
0.616057 -1.8316 -0.072106
0.528968 0.529654 0.111512
0.502062 0.529654 0.246245
0.449932 0.529654 0.375499
0.378029 0.529654 0.488793
0.291254 0.529654 0.591674
0.185369 0.529654 0.670234
0.071882 0.529654 0.727682
-0.059043 0.529654 0.764524
-0.194464 0.529654 0.776795
-0.329888 0.529654 0.764017
-0.460789 0.529654 0.726533
-0.595905 0.529654 0.656662
-0.729212 0.529654 0.545382
-0.750573 0.529654 0.521775
-0.847998 0.529654 0.378731
-0.862681 0.529654 0.349088
-0.917178 0.529654 0.185316
-0.922499 0.529654 0.158566
-0.931222 0.529654 -0.020306
-0.928057 0.529654 -0.055323
-0.888752 0.529655 -0.222507
-0.875918 0.529654 -0.256065
-0.792714 0.529654 -0.405791
-0.770893 0.529654 -0.435023
-0.650203 0.529654 -0.555974
-0.620969 0.529654 -0.578311
-0.471976 0.529654 -0.661311
-0.437669 0.529654 -0.674774
-0.271649 0.529654 -0.713441
-0.235169 0.529654 -0.716886
-0.064681 0.529654 -0.708075
-0.029178 0.529654 -0.70137
0.120483 0.529654 -0.650832
0.239881 0.529654 -0.570043
0.256899 0.529654 -0.558044
0.365791 0.529654 -0.452759
0.450699 0.529654 -0.30714
0.45869 0.529654 -0.292429
0.50709 0.529654 -0.162555
0.530731 0.529654 -0.026322
1.8121 2.89091 0.542644
1.80601 2.89091 0.665318
1.77266 2.89091 0.77967
1.71443 2.89091 0.88242
1.634 2.89091 0.971145
1.53412 2.89091 1.04393
1.4001 2.89091 1.10458
1.22987 2.89091 1.14301
1.19154 2.89091 1.1472
1.03171 2.89091 1.14679
0.886931 2.89091 1.12484
0.795542 2.89091 1.09985
0.668135 2.89091 1.05054
0.494851 2.89091 0.949789
0.467067 2.89091 0.929448
0.345085 2.89091 0.817756
0.258931 2.89091 0.706648
0.196472 2.89091 0.587147
0.160297 2.89091 0.46318
0.152665 2.89091 0.340731
0.173389 2.89091 0.220452
0.216975 2.89091 0.116457
0.338701 2.89091 -0.030795
0.447335 2.89091 -0.104853
0.575955 2.89091 -0.159337
0.739597 2.89091 -0.194121
0.766919 2.89091 -0.197572
0.926355 2.89091 -0.19815
1.08861 2.89091 -0.173485
1.23626 2.89091 -0.128917
1.38396 2.89091 -0.059638
1.53041 2.89091 0.041044
1.55356 2.89091 0.059964
1.65826 2.89091 0.169625
1.73772 2.89091 0.289864
1.78941 2.89091 0.415874
-0.292867 2.89091 0.381729
-0.32199 2.89091 0.486501
-0.370249 2.89091 0.584929
-0.436012 2.89091 0.673513
-0.51699 2.89091 0.749094
-0.61033 2.89091 0.808982
-0.712717 2.89091 0.851065
-0.820513 2.89091 0.873895
-0.925428 2.89091 0.877059
-1.08729 2.89091 0.843947
-1.18323 2.89091 0.798512
-1.26855 2.89091 0.736057
-1.3404 2.89091 0.658852
-1.39648 2.89091 0.569622
-1.43501 2.89091 0.471443
-1.45302 2.89091 0.387271
-1.44693 2.89091 0.210704
-1.41732 2.89091 0.108605
-1.36958 2.89091 0.012867
-1.30526 2.89091 -0.073383
-1.22644 2.89091 -0.147302
-1.13567 2.89091 -0.206413
-1.03591 2.89091 -0.248695
-0.930454 2.89091 -0.272658
-0.822824 2.89091 -0.27741
-0.716645 2.89091 -0.2627
-0.61552 2.89091 -0.228939
-0.522909 2.89091 -0.177194
-0.441995 2.89091 -0.10915
-0.375582 2.89091 -0.027053
-0.325996 2.89091 0.066363
-0.295016 2.89091 0.167964
-0.283807 2.89091 0.274303
2.87268 5.25217 0.943798
2.84995 5.25217 1.0621
2.80552 5.25217 1.17379
2.74102 5.25217 1.27515
2.65871 5.25217 1.36285
2.56139 5.25217 1.43403
2.45236 5.25217 1.48638
2.33524 5.25217 1.51824
2.20196 5.25217 1.52808
2.06113 5.25217 1.50999
1.94519 5.25217 1.47144
1.83804 5.25217 1.4129
1.74324 5.25217 1.3363
1.66398 5.25217 1.24416
1.60292 5.25217 1.13951
1.56217 5.25217 1.02581
1.54364 5.25217 0.914096
1.54292 5.25217 0.816726
1.56334 5.25217 0.697723
1.60587 5.25217 0.584542
1.66916 5.25217 0.48111
1.75111 5.25217 0.391053
1.84895 5.25217 0.317556
1.95932 5.25217 0.263235
2.07839 5.25217 0.230038
2.20203 5.25217 0.21916
2.32589 5.25217 0.231
2.44566 5.25217 0.265142
2.55716 5.25217 0.320375
2.65649 5.25217 0.394738
2.74025 5.25217 0.485592
2.80555 5.25217 0.589728
2.85022 5.25217 0.70348
2.87282 5.25217 0.822881
-0.443802 5.25217 0.705369
-0.459729 5.25217 0.811276
-0.494736 5.25217 0.912284
-0.547577 5.25217 1.00491
-0.616383 5.25217 1.08598
-0.698737 5.25217 1.15274
-0.791766 5.25217 1.20295
-0.892259 5.25217 1.23497
-0.996771 5.25217 1.24778
-1.10176 5.25217 1.24103
-1.20369 5.25217 1.21501
-1.29915 5.25217 1.17065
-1.38497 5.25217 1.10947
-1.45829 5.25217 1.03353
-1.51669 5.25217 0.945389
-1.5582 5.25217 0.84798
-1.57938 5.25217 0.762215
-1.58555 5.25217 0.638574
-1.57041 5.25217 0.533598
-1.53646 5.25217 0.433169
-1.48482 5.25217 0.340693
-1.4172 5.25217 0.259327
-1.33584 5.25217 0.191862
-1.24349 5.25217 0.140629
-1.14327 5.25217 0.10741
-1.03858 5.25217 0.093382
-0.933002 5.25217 0.099068
-0.830134 5.25217 0.124317
-0.733514 5.25217 0.168306
-0.646477 5.25217 0.229562
-0.572039 5.25217 0.30601
-0.512789 5.25217 0.395037
-0.470797 5.25217 0.49358
-0.447532 5.25217 0.598232
2.84897 7.61342 1.82659
2.98988 7.61342 1.92847
3.06048 7.61342 2.02074
3.0417 7.61342 2.0944
2.90139 7.61342 2.18706
2.86488 7.61342 2.21091
2.70127 7.61342 2.33555
2.67179 7.61342 2.359
2.5164 7.61342 2.46877
2.39417 7.61342 2.50927
2.29546 7.61342 2.47694
2.22907 7.61342 2.40419
2.10872 7.61342 2.20098
2.04287 7.61342 2.07628
1.9829 7.61342 1.95028
1.93021 7.61342 1.82374
1.89402 7.61342 1.71963
1.85963 7.61342 1.57681
1.84777 7.61342 1.48109
1.84735 7.61342 1.37236
1.86562 7.61342 1.27331
1.90826 7.61342 1.18489
1.98544 7.61342 1.11131
2.18872 7.61342 1.08976
2.25172 7.61342 1.15371
2.31676 7.61342 1.25718
2.38838 7.61342 1.38589
2.46269 7.61342 1.5077
2.55382 7.61342 1.61513
2.59805 7.61342 1.6529
2.7092 7.61342 1.73496
3.26119 7.61342 0.269857
3.25117 7.61342 0.374255
3.14978 7.61342 0.494754
3.12804 7.61342 0.513792
2.97096 7.61342 0.63209
2.92673 7.61342 0.664407
2.78358 7.61342 0.781189
2.74371 7.61342 0.820063
2.57329 7.61342 0.876845
2.52217 7.61342 0.799335
2.47348 7.61342 0.643575
2.4594 7.61342 0.588217
2.39938 7.61342 0.384001
2.38597 7.61342 0.352154
2.27783 7.61342 0.201447
2.18356 7.61342 0.107496
2.08674 7.61342 0.002164
2.05452 7.61342 -0.048963
2.11119 7.61342 -0.257665
2.20568 7.61342 -0.324521
2.30447 7.61342 -0.352598
2.40538 7.61342 -0.351669
2.50845 7.61342 -0.328283
2.61321 7.61342 -0.286547
2.71835 7.61342 -0.229881
2.82214 7.61342 -0.161674
2.9227 7.61342 -0.085383
2.98855 7.61342 -0.03105
3.03441 7.61342 0.01096
3.1016 7.61342 0.075373
3.16058 7.61342 0.135082
-0.36493 7.61342 0.917941
-0.377433 7.61342 1.00195
-0.360554 7.61342 1.05128
-0.325543 7.61342 1.11444
-0.350732 7.61342 1.21161
-0.465132 7.61342 1.27393
-0.631679 7.61342 1.35937
-0.727166 7.61342 1.40736
-0.825944 7.61342 1.4359
-0.931573 7.61342 1.44639
-1.04172 7.61342 1.43646
-1.14224 7.61342 1.40759
-1.23229 7.61342 1.36297
-1.31382 7.61342 1.30274
-1.38676 7.61342 1.22492
-1.43838 7.61342 1.14548
-1.4766 7.61342 1.05794
-1.50108 7.61342 0.955144
-1.50368 7.61342 0.811966
-1.51774 7.61342 0.781347
-1.61479 7.61342 0.659101
-1.57334 7.61342 0.561218
-1.51806 7.61342 0.537232
-1.32297 7.61342 0.454693
-1.23066 7.61342 0.384962
-1.13273 7.61342 0.337756
-1.0479 7.61342 0.314223
-0.942961 7.61342 0.303018
-0.837726 7.61342 0.311297
-0.735787 7.61342 0.33879
-0.640628 7.61342 0.384568
-0.555503 7.61342 0.447072
-0.483321 7.61342 0.524172
-0.426551 7.61342 0.613237
-0.387133 7.61342 0.711222
-0.366413 7.61342 0.814781
0.830543 9.97468 1.58539
0.887581 9.97468 1.63915
0.940029 9.97468 1.73682
0.85961 9.97468 1.84357
0.797197 9.97468 1.87175
0.703752 9.97468 1.89623
0.598509 9.97468 1.91487
0.499254 9.97468 1.93335
0.331135 9.97468 1.98636
0.231356 9.97468 2.01044
0.122574 9.97468 2.02384
0.030955 9.97468 2.02208
-0.05617 9.97468 2.0018
-0.15133 9.97468 1.91772
-0.175727 9.97468 1.80916
-0.193073 9.97468 1.69724
-0.216716 9.97468 1.57445
-0.249839 9.97468 1.48716
-0.254372 9.97468 1.34035
-0.202135 9.97468 1.19904
-0.104493 9.97468 1.08192
0.022652 9.97468 1.0101
0.164872 9.97468 1.00113
0.263182 9.97468 1.0082
0.357987 9.97468 0.99693
0.446854 9.97468 1.02049
0.526367 9.97468 1.1439
0.55309 9.97468 1.25152
0.584745 9.97468 1.35271
0.666741 9.97468 1.45096
0.746698 9.97468 1.51682
-1.91698 9.97468 0.574537
-1.95964 9.97468 0.689707
-2.03428 9.97468 0.789298
-2.12349 9.97468 0.849671
-2.19907 9.97468 0.864974
-2.28156 9.97468 0.870889
-2.36968 9.97468 0.885861
-2.45145 9.97468 0.817848
-2.48255 9.97468 0.708131
-2.52389 9.97468 0.597935
-2.57817 9.97468 0.54614
-2.6754 9.97468 0.472101
-2.74981 9.97468 0.399787
-2.73522 9.97468 0.285047
-2.65645 9.97468 0.229985
-2.55051 9.97468 0.191706
-2.43592 9.97468 0.153784
-2.34158 9.97468 0.108319
-2.22965 9.97468 0.067471
-2.12308 9.97468 0.050777
-2.00454 9.97468 0.090822
-1.96575 9.97468 0.226309
-1.94747 9.97468 0.340158
-1.91292 9.97468 0.460435
0.84319 12.3359 1.22559
0.750094 12.3359 1.27018
0.65598 12.3359 1.29444
0.600284 12.3359 1.29546
0.487346 12.3359 1.23828
0.483398 12.3359 1.14785
0.581509 12.3359 1.1285
0.679619 12.3359 1.10916
0.77773 12.3359 1.08981
0.87973 12.3359 1.06969
0.97784 12.3359 1.05035
1.15223 12.3359 1.03054
1.06176 12.3359 1.0756
0.995043 12.3359 1.11514
3 8 63 64
3 8 64 9
3 9 64 65
3 9 65 9
3 9 65 65
3 9 65 10
3 10 65 66
3 10 66 10
3 10 66 66
3 10 66 11
3 11 66 67
3 11 67 11
3 11 67 67
3 11 67 12
3 12 67 68
3 12 68 12
3 12 68 68
3 12 68 13
3 13 68 69
3 13 69 13
3 13 69 69
3 13 69 14
3 14 69 70
3 14 70 14
3 14 70 70
3 14 70 15
3 15 70 71
3 15 71 15
3 15 71 71
3 15 71 0
3 0 71 72
3 0 72 0
3 0 72 72
3 0 72 1
3 1 72 73
3 1 73 1
3 1 73 73
3 1 73 2
3 2 73 74
3 2 74 2
3 2 74 74
3 2 74 3
3 3 74 75
3 3 75 3
3 3 75 75
3 3 75 4
3 4 75 76
3 4 76 4
3 4 76 76
3 4 76 5
3 5 76 77
3 5 77 5
3 5 77 77
3 5 77 6
3 6 77 78
3 6 78 6
3 6 78 78
3 6 78 7
3 7 78 79
3 7 79 7
3 7 79 79
3 7 79 8
3 8 79 80
3 8 80 8
3 8 80 80
3 8 80 8
3 8 80 81
3 8 81 8
3 8 81 82
3 8 82 8
3 8 82 83
3 8 83 8
3 8 83 84
3 8 84 8
3 8 84 43
3 8 43 8
3 8 43 44
3 8 44 8
3 8 44 45
3 8 45 8
3 8 45 46
3 8 46 8
3 8 46 47
3 8 47 8
3 8 47 48
3 8 48 8
3 8 48 49
3 8 49 8
3 8 49 50
3 8 50 8
3 8 50 51
3 8 51 8
3 8 51 52
3 8 52 8
3 8 52 53
3 8 53 8
3 8 53 54
3 8 54 8
3 8 54 55
3 8 55 8
3 8 55 56
3 8 56 8
3 8 56 57
3 8 57 8
3 8 57 58
3 8 58 8
3 8 58 59
3 8 59 8
3 8 59 60
3 8 60 8
3 8 60 61
3 8 61 8
3 8 61 62
3 8 62 8
3 8 62 63
3 8 63 8
3 8 63 64
3 8 64 8
3 8 64 63
3 8 63 8
3 63 138 139
3 63 139 64
3 64 139 140
3 64 140 64
3 64 140 140
3 64 140 65
3 65 140 141
3 65 141 65
3 65 141 141
3 65 141 66
3 66 141 142
3 66 142 66
3 66 142 142
3 66 142 67
3 67 142 143
3 67 143 67
3 67 143 143
3 67 143 68
3 68 143 144
3 68 144 68
3 68 144 144
3 68 144 69
3 69 144 145
3 69 145 69
3 69 145 145
3 69 145 70
3 70 145 146
3 70 146 70
3 70 146 146
3 70 146 71
3 71 146 147
3 71 147 71
3 71 147 147
3 71 147 72
3 72 147 148
3 72 148 72
3 72 148 148
3 72 148 73
3 73 148 149
3 73 149 73
3 73 149 149
3 73 149 74
3 74 149 150
3 74 150 74
3 74 150 150
3 74 150 75
3 75 150 151
3 75 151 75
3 75 151 151
3 75 151 76
3 76 151 152
3 76 152 76
3 76 152 152
3 76 152 77
3 77 152 153
3 77 153 77
3 77 153 153
3 77 153 78
3 78 153 154
3 78 154 78
3 78 154 154
3 78 154 79
3 79 154 155
3 79 155 79
3 79 155 155
3 79 155 80
3 80 155 155
3 80 155 81
3 81 155 156
3 81 156 81
3 81 156 156
3 81 156 82
3 82 156 157
3 82 157 82
3 82 157 157
3 82 157 83
3 83 157 117
3 83 117 83
3 83 117 117
3 83 117 84
3 84 117 118
3 84 118 84
3 84 118 118
3 84 118 43
3 43 118 119
3 43 119 43
3 43 119 119
3 43 119 44
3 44 119 120
3 44 120 44
3 44 120 120
3 44 120 45
3 45 120 121
3 45 121 45
3 45 121 121
3 45 121 46
3 46 121 122
3 46 122 46
3 46 122 122
3 46 122 47
3 47 122 123
3 47 123 47
3 47 123 123
3 47 123 48
3 48 123 124
3 48 124 48
3 48 124 124
3 48 124 49
3 49 124 125
3 49 125 49
3 49 125 125
3 49 125 50
3 50 125 126
3 50 126 50
3 50 126 126
3 50 126 51
3 51 126 127
3 51 127 51
3 51 127 127
3 51 127 52
3 52 127 128
3 52 128 52
3 52 128 128
3 52 128 53
3 53 128 129
3 53 129 53
3 53 129 129
3 53 129 54
3 54 129 130
3 54 130 54
3 54 130 130
3 54 130 55
3 55 130 131
3 55 131 55
3 55 131 131
3 55 131 56
3 56 131 132
3 56 132 56
3 56 132 132
3 56 132 57
3 57 132 133
3 57 133 57
3 57 133 133
3 57 133 58
3 58 133 134
3 58 134 58
3 58 134 134
3 58 134 59
3 59 134 135
3 59 135 59
3 59 135 135
3 59 135 60
3 60 135 136
3 60 136 60
3 60 136 136
3 60 136 61
3 61 136 137
3 61 137 61
3 61 137 137
3 61 137 62
3 62 137 138
3 62 138 62
3 62 138 138
3 62 138 63
3 63 138 138
3 63 138 63
3 63 138 139
3 63 139 63
3 63 139 138
3 63 138 63
3 179 139 138
3 179 180 139
3 180 139 139
3 180 181 139
3 181 140 139
3 181 181 140
3 181 140 140
3 181 182 140
3 182 141 140
3 182 182 141
3 182 141 141
3 182 183 141
3 183 142 141
3 183 183 142
3 183 142 142
3 183 184 142
3 184 143 142
3 184 184 143
3 184 143 143
3 184 185 143
3 185 144 143
3 185 185 144
3 185 144 144
3 185 186 144
3 186 145 144
3 186 186 145
3 186 145 145
3 186 187 145
3 187 146 145
3 187 187 146
3 187 146 146
3 187 188 146
3 188 147 146
3 188 188 147
3 188 148 147
3 188 188 148
3 188 148 148
3 188 189 148
3 189 149 148
3 189 189 149
3 189 149 149
3 189 190 149
3 190 150 149
3 190 190 150
3 190 150 150
3 190 191 150
3 191 151 150
3 191 191 151
3 191 151 151
3 191 192 151
3 192 152 151
3 192 192 152
3 192 152 152
3 192 193 152
3 193 153 152
3 193 193 153
3 193 153 153
3 193 194 153
3 194 154 153
3 194 194 154
3 194 154 154
3 194 195 154
3 195 155 154
3 195 195 155
3 195 155 155
3 195 196 155
3 196 156 155
3 196 196 156
3 196 156 156
3 196 158 156
3 158 157 156
3 158 158 157
3 158 157 157
3 158 159 157
3 159 117 157
3 159 159 117
3 159 117 117
3 159 160 117
3 160 118 117
3 160 160 118
3 160 118 118
3 160 161 118
3 161 119 118
3 161 161 119
3 161 119 119
3 161 162 119
3 162 120 119
3 162 162 120
3 162 120 120
3 162 163 120
3 163 121 120
3 163 163 121
3 163 121 121
3 163 164 121
3 164 122 121
3 164 164 122
3 164 122 122
3 164 165 122
3 165 123 122
3 165 165 123
3 165 123 123
3 165 166 123
3 166 124 123
3 166 166 124
3 166 124 124
3 166 167 124
3 167 125 124
3 167 167 125
3 167 125 125
3 167 168 125
3 168 126 125
3 168 168 126
3 168 126 126
3 168 169 126
3 169 127 126
3 169 169 127
3 169 127 127
3 169 170 127
3 170 170 108
3 170 108 108
3 170 171 108
3 171 109 108
3 171 171 109
3 171 109 109
3 171 172 109
3 172 110 109
3 172 172 110
3 172 110 110
3 172 173 110
3 173 111 110
3 173 173 111
3 173 111 111
3 173 174 111
3 174 112 111
3 174 174 112
3 174 112 112
3 174 175 112
3 175 113 112
3 175 175 113
3 175 113 113
3 175 176 113
3 176 114 113
3 176 176 114
3 176 114 114
3 176 177 114
3 177 115 114
3 177 177 115
3 177 115 115
3 177 178 115
3 178 116 115
3 178 178 116
3 178 116 116
3 178 179 116
3 179 85 116
3 179 179 85
3 179 85 85
3 179 179 85
3 179 86 85
3 179 179 86
3 179 87 86
3 179 179 87
3 179 88 87
3 179 179 88
3 179 89 88
3 179 179 89
3 179 90 89
3 179 179 90
3 179 91 90
3 179 179 91
3 179 92 91
3 179 179 92
3 179 93 92
3 179 179 93
3 179 94 93
3 179 179 94
3 179 95 94
3 179 179 95
3 179 96 95
3 179 179 96
3 179 97 96
3 179 179 97
3 179 98 97
3 179 179 98
3 179 99 98
3 179 179 99
3 179 100 99
3 179 179 100
3 179 101 100
3 179 179 101
3 179 102 101
3 179 179 102
3 179 103 102
3 179 179 103
3 179 104 103
3 179 179 104
3 179 105 104
3 179 179 105
3 179 106 105
3 179 179 106
3 179 107 106
3 179 179 107
3 179 108 107
3 179 179 108
3 179 179 127
3 179 128 127
3 179 179 128
3 179 129 128
3 179 179 129
3 179 130 129
3 179 179 130
3 179 131 130
3 179 179 131
3 179 132 131
3 179 179 132
3 179 133 132
3 179 179 133
3 179 134 133
3 179 179 134
3 179 135 134
3 179 179 135
3 179 136 135
3 179 179 136
3 179 137 136
3 179 179 137
3 179 138 137
3 179 179 138
3 179 139 138
3 179 179 139
3 179 138 139
3 179 179 138
3 108 179 170
3 127 170 179
3 179 215 216
3 179 216 180
3 180 216 217
3 180 217 180
3 180 217 217
3 180 217 181
3 181 217 218
3 181 218 181
3 181 218 218
3 181 218 182
3 182 218 219
3 182 219 182
3 182 219 219
3 182 219 183
3 183 219 220
3 183 220 183
3 183 220 220
3 183 220 184
3 184 220 221
3 184 221 184
3 184 221 221
3 184 221 185
3 185 221 222
3 185 222 185
3 185 222 222
3 185 222 186
3 186 222 223
3 186 223 186
3 186 223 223
3 186 223 187
3 187 223 224
3 187 224 187
3 187 224 224
3 187 224 188
3 188 224 225
3 188 225 188
3 188 225 225
3 188 225 189
3 189 225 226
3 189 226 189
3 189 226 226
3 189 226 190
3 190 226 227
3 190 227 190
3 190 227 227
3 190 227 191
3 191 227 228
3 191 228 191
3 191 228 228
3 191 228 192
3 192 228 229
3 192 229 192
3 192 229 229
3 192 229 193
3 193 229 230
3 193 230 193
3 193 230 230
3 193 230 194
3 194 230 231
3 194 231 194
3 194 231 231
3 194 231 195
3 195 231 232
3 195 232 195
3 195 232 232
3 195 232 196
3 196 232 233
3 196 233 196
3 196 233 233
3 196 233 158
3 158 233 234
3 158 234 158
3 158 234 234
3 158 234 159
3 159 234 235
3 159 235 159
3 159 235 235
3 159 235 160
3 160 235 236
3 160 236 160
3 160 236 236
3 160 236 161
3 161 236 197
3 161 197 161
3 161 197 197
3 161 197 162
3 162 197 198
3 162 198 162
3 162 198 198
3 162 198 163
3 163 198 199
3 163 199 163
3 163 199 199
3 163 199 164
3 164 199 200
3 164 200 164
3 164 200 200
3 164 200 165
3 165 200 201
3 165 201 165
3 165 201 201
3 165 201 166
3 166 201 202
3 166 202 166
3 166 202 202
3 166 202 167
3 167 202 203
3 167 203 167
3 167 203 203
3 167 203 168
3 168 203 204
3 168 204 168
3 168 204 204
3 168 204 169
3 169 204 205
3 169 205 169
3 169 205 205
3 169 205 170
3 170 205 206
3 170 206 170
3 170 206 206
3 170 206 171
3 171 206 207
3 171 207 171
3 171 207 207
3 171 207 172
3 172 207 208
3 172 208 172
3 172 208 208
3 172 208 173
3 173 208 209
3 173 209 173
3 173 209 209
3 173 209 174
3 174 209 210
3 174 210 174
3 174 210 210
3 174 210 175
3 175 210 211
3 175 211 175
3 175 211 211
3 175 211 176
3 176 211 212
3 176 212 176
3 176 212 212
3 176 212 177
3 177 212 213
3 177 213 177
3 177 213 213
3 177 213 178
3 178 213 214
3 178 214 178
3 178 214 214
3 178 214 179
3 179 214 215
3 179 215 179
3 179 215 215
3 179 215 179
3 179 215 216
3 179 216 179
3 179 216 215
3 179 215 179
3 215 288 289
3 215 289 216
3 216 289 290
3 216 290 216
3 216 290 290
3 216 290 217
3 217 290 291
3 217 291 217
3 217 291 291
3 217 291 218
3 218 291 292
3 218 292 218
3 218 292 292
3 218 292 219
3 219 292 293
3 219 293 219
3 219 293 293
3 219 293 220
3 220 293 294
3 220 294 220
3 220 294 294
3 220 294 221
3 221 294 295
3 221 295 221
3 221 295 295
3 221 295 222
3 222 295 296
3 222 296 222
3 222 296 296
3 222 296 223
3 223 296 297
3 223 297 223
3 223 297 297
3 223 297 224
3 224 297 298
3 224 298 224
3 224 298 298
3 224 298 225
3 225 298 299
3 225 299 225
3 225 299 299
3 225 299 226
3 226 299 300
3 226 300 226
3 226 300 300
3 226 300 227
3 227 300 301
3 227 301 227
3 227 301 301
3 227 301 228
3 228 301 302
3 228 302 228
3 228 302 302
3 228 302 229
3 229 302 303
3 229 303 229
3 229 303 303
3 229 303 230
3 230 303 304
3 230 304 230
3 230 304 304
3 230 304 231
3 231 304 305
3 231 305 231
3 231 305 305
3 231 305 232
3 232 256 232
3 232 256 256
3 232 256 233
3 233 256 257
3 233 257 233
3 233 257 257
3 233 257 234
3 234 257 258
3 234 258 234
3 234 258 258
3 234 258 235
3 235 258 259
3 235 259 235
3 235 259 259
3 235 259 236
3 236 259 260
3 236 260 236
3 236 260 260
3 236 260 197
3 197 260 261
3 197 261 197
3 197 261 261
3 197 261 198
3 198 261 262
3 198 262 198
3 198 262 262
3 198 262 199
3 199 262 263
3 199 263 199
3 199 263 263
3 199 263 200
3 200 263 264
3 200 264 200
3 200 264 264
3 200 264 201
3 201 264 265
3 201 265 201
3 201 265 265
3 201 265 202
3 202 265 266
3 202 266 202
3 202 266 266
3 202 266 203
3 203 266 267
3 203 267 203
3 203 267 267
3 203 267 204
3 204 267 268
3 204 268 204
3 204 268 268
3 204 268 205
3 205 268 269
3 205 269 205
3 205 269 269
3 205 269 206
3 206 269 270
3 206 270 206
3 206 270 270
3 206 270 207
3 207 270 271
3 207 271 207
3 207 271 271
3 207 271 208
3 208 271 272
3 208 272 208
3 208 272 272
3 208 272 209
3 209 272 237
3 209 237 209
3 209 237 237
3 209 237 210
3 210 237 238
3 210 238 210
3 210 238 238
3 210 238 211
3 211 238 239
3 211 239 211
3 211 239 239
3 211 239 212
3 212 239 240
3 212 240 212
3 212 240 240
3 212 240 213
3 213 240 241
3 213 241 213
3 213 241 241
3 213 241 214
3 214 241 242
3 214 242 214
3 214 242 242
3 214 242 215
3 215 242 243
3 215 243 215
3 215 243 243
3 215 243 215
3 215 243 244
3 215 244 215
3 215 244 245
3 215 245 215
3 215 245 246
3 215 246 215
3 215 246 247
3 215 247 215
3 215 247 248
3 215 248 215
3 215 248 249
3 215 249 215
3 215 249 250
3 215 250 215
3 215 250 251
3 215 251 215
3 215 251 252
3 215 252 215
3 215 252 253
3 215 253 215
3 215 253 254
3 215 254 215
3 215 254 255
3 215 255 215
3 215 255 256
3 215 256 215
3 215 305 215
3 215 305 273
3 215 273 215
3 215 273 274
3 215 274 215
3 215 274 275
3 215 275 215
3 215 275 276
3 215 276 215
3 215 276 277
3 215 277 215
3 215 277 278
3 215 278 215
3 215 278 279
3 215 279 215
3 215 279 280
3 215 280 215
3 215 280 281
3 215 281 215
3 215 281 282
3 215 282 215
3 215 282 283
3 215 283 215
3 215 283 284
3 215 284 215
3 215 284 285
3 215 285 215
3 215 285 286
3 215 286 215
3 215 286 287
3 215 287 215
3 215 287 288
3 215 288 215
3 215 288 289
3 215 289 215
3 215 289 288
3 215 288 215
3 256 232 215
3 305 215 232
3 256 323 324
3 256 324 257
3 257 324 325
3 257 325 257
3 257 325 325
3 257 325 258
3 258 325 326
3 258 326 258
3 258 326 326
3 258 326 259
3 259 326 326
3 259 326 260
3 260 326 327
3 260 327 260
3 260 327 327
3 260 327 261
3 261 327 328
3 261 328 261
3 261 328 328
3 261 328 262
3 262 328 329
3 262 329 262
3 262 329 329
3 262 329 263
3 263 329 330
3 263 330 263
3 263 330 330
3 263 330 264
3 264 330 331
3 264 331 264
3 264 331 331
3 264 331 265
3 265 331 332
3 265 332 265
3 265 332 332
3 265 332 266
3 266 332 333
3 266 333 266
3 266 333 333
3 266 333 267
3 267 333 334
3 267 334 267
3 267 334 334
3 267 334 268
3 268 334 335
3 268 335 268
3 268 335 335
3 268 335 269
3 269 335 336
3 269 336 269
3 269 336 336
3 269 336 270
3 270 336 337
3 270 337 270
3 270 337 337
3 270 337 271
3 271 337 338
3 271 338 271
3 271 338 338
3 271 338 272
3 272 338 339
3 272 339 272
3 272 339 339
3 272 339 237
3 237 339 306
3 237 306 237
3 237 306 306
3 237 306 238
3 238 306 307
3 238 307 238
3 238 307 307
3 238 307 239
3 239 307 308
3 239 308 239
3 239 308 308
3 239 308 240
3 240 308 309
3 240 309 240
3 240 309 309
3 240 309 241
3 241 309 310
3 241 310 241
3 241 310 310
3 241 310 242
3 242 310 311
3 242 311 242
3 242 311 311
3 242 311 243
3 243 311 312
3 243 312 243
3 243 312 312
3 243 312 244
3 244 312 313
3 244 313 244
3 244 313 313
3 244 313 245
3 245 313 314
3 245 314 245
3 245 314 314
3 245 314 246
3 246 314 315
3 246 315 246
3 246 315 315
3 246 315 247
3 247 315 316
3 247 316 247
3 247 316 317
3 247 317 247
3 247 317 317
3 247 317 248
3 248 317 318
3 248 318 248
3 248 318 318
3 248 318 249
3 249 318 319
3 249 319 249
3 249 319 319
3 249 319 250
3 250 319 320
3 250 320 250
3 250 320 320
3 250 320 251
3 251 320 321
3 251 321 251
3 251 321 321
3 251 321 252
3 252 321 322
3 252 322 252
3 252 322 322
3 252 322 253
3 253 322 323
3 253 323 253
3 253 323 323
3 253 323 254
3 254 323 323
3 254 323 254
3 254 323 323
3 254 323 255
3 255 323 323
3 255 323 256
3 256 323 324
3 256 324 256
3 256 324 323
3 256 323 256
3 288 357 358
3 288 358 289
3 289 358 359
3 289 359 289
3 289 359 359
3 289 359 290
3 290 359 360
3 290 360 290
3 290 360 360
3 290 360 291
3 291 360 361
3 291 361 291
3 291 361 361
3 291 361 292
3 292 361 362
3 292 362 292
3 292 362 362
3 292 362 293
3 293 362 363
3 293 363 293
3 293 363 363
3 293 363 294
3 294 363 364
3 294 364 294
3 294 364 364
3 294 364 295
3 295 364 365
3 295 365 295
3 295 365 365
3 295 365 296
3 296 365 366
3 296 366 296
3 296 366 366
3 296 366 297
3 297 366 367
3 297 367 297
3 297 367 367
3 297 367 298
3 298 367 368
3 298 368 298
3 298 368 368
3 298 368 299
3 299 368 369
3 299 369 299
3 299 369 369
3 299 369 300
3 300 369 370
3 300 370 300
3 300 370 370
3 300 370 301
3 301 370 371
3 301 371 301
3 301 371 371
3 301 371 302
3 302 371 372
3 302 372 302
3 302 372 372
3 302 372 303
3 303 372 373
3 303 373 303
3 303 373 373
3 303 373 304
3 304 373 373
3 304 373 305
3 305 373 340
3 305 340 305
3 305 340 340
3 305 340 273
3 273 340 341
3 273 341 273
3 273 341 341
3 273 341 274
3 274 341 342
3 274 342 274
3 274 342 342
3 274 342 275
3 275 342 343
3 275 343 275
3 275 343 343
3 275 343 276
3 276 343 344
3 276 344 276
3 276 344 344
3 276 344 277
3 277 344 345
3 277 345 277
3 277 345 345
3 277 345 278
3 278 345 346
3 278 346 278
3 278 346 346
3 278 346 279
3 279 346 347
3 279 347 279
3 279 347 347
3 279 347 280
3 280 347 348
3 280 348 280
3 280 348 348
3 280 348 281
3 281 348 349
3 281 349 281
3 281 349 349
3 281 349 282
3 282 349 350
3 282 350 282
3 282 350 350
3 282 350 283
3 283 350 351
3 283 351 283
3 283 351 351
3 283 351 284
3 284 351 352
3 284 352 284
3 284 352 352
3 284 352 285
3 285 352 353
3 285 353 285
3 285 353 353
3 285 353 286
3 286 353 354
3 286 354 286
3 286 354 354
3 286 354 287
3 287 354 355
3 287 355 287
3 287 355 355
3 287 355 288
3 288 355 356
3 288 356 288
3 288 356 356
3 288 356 288
3 288 356 357
3 288 357 288
3 288 357 358
3 288 358 288
3 288 358 357
3 288 357 288
3 323 393 394
3 323 394 324
3 324 394 395
3 324 395 324
3 324 395 395
3 324 395 325
3 325 395 396
3 325 396 325
3 325 396 396
3 325 396 326
3 326 396 397
3 326 397 326
3 326 397 397
3 326 397 327
3 327 397 398
3 327 398 327
3 327 398 398
3 327 398 328
3 328 413 328
3 328 413 413
3 328 413 329
3 329 413 414
3 329 414 329
3 329 414 414
3 329 414 330
3 330 414 415
3 330 415 330
3 330 415 415
3 330 415 331
3 331 415 416
3 331 416 331
3 331 416 416
3 331 416 332
3 332 416 417
3 332 417 332
3 332 417 417
3 332 417 333
3 333 417 418
3 333 418 333
3 333 418 418
3 333 418 334
3 334 418 419
3 334 419 334
3 334 419 419
3 334 419 335
3 335 419 420
3 335 420 335
3 335 420 420
3 335 420 336
3 336 420 421
3 336 421 336
3 336 421 421
3 336 421 337
3 337 421 421
3 337 421 338
3 338 421 422
3 338 422 338
3 338 422 423
3 338 423 338
3 338 423 423
3 338 423 339
3 339 423 424
3 339 424 339
3 339 424 424
3 339 424 306
3 306 424 425
3 306 425 306
3 306 425 425
3 306 425 307
3 307 425 426
3 307 426 307
3 307 426 426
3 307 426 308
3 308 426 427
3 308 427 308
3 308 427 427
3 308 427 309
3 309 427 428
3 309 428 309
3 309 428 428
3 309 428 310
3 310 428 429
3 310 429 310
3 310 429 429
3 310 429 311
3 311 429 430
3 311 430 311
3 311 430 430
3 311 430 312
3 312 430 431
3 312 431 312
3 312 431 431
3 312 431 313
3 313 431 432
3 313 432 313
3 313 432 432
3 313 432 314
3 314 432 433
3 314 433 314
3 314 433 433
3 314 433 315
3 315 433 434
3 315 434 315
3 315 434 434
3 315 434 316
3 316 434 435
3 316 435 316
3 316 435 435
3 316 435 317
3 317 435 405
3 317 405 317
3 317 405 405
3 317 405 318
3 318 405 406
3 318 406 318
3 318 406 406
3 318 406 319
3 319 406 407
3 319 407 319
3 319 407 407
3 319 407 320
3 320 407 408
3 320 408 320
3 320 408 408
3 320 408 321
3 321 408 409
3 321 409 321
3 321 409 409
3 321 409 322
3 322 409 410
3 322 410 322
3 322 410 410
3 322 410 323
3 323 410 411
3 323 411 323
3 323 411 411
3 323 411 323
3 323 411 412
3 323 412 323
3 323 412 413
3 323 413 323
3 323 398 323
3 323 398 399
3 323 399 323
3 323 399 400
3 323 400 323
3 323 400 401
3 323 401 323
3 323 401 402
3 323 402 323
3 323 402 403
3 323 403 323
3 323 403 404
3 323 404 323
3 323 404 374
3 323 374 323
3 323 374 375
3 323 375 323
3 323 375 376
3 323 376 323
3 323 376 377
3 323 377 323
3 323 377 378
3 323 378 323
3 323 378 379
3 323 379 323
3 323 379 380
3 323 380 323
3 323 380 381
3 323 381 323
3 323 381 382
3 323 382 323
3 323 382 383
3 323 383 323
3 323 383 384
3 323 384 323
3 323 384 385
3 323 385 323
3 323 385 386
3 323 386 323
3 323 386 387
3 323 387 323
3 323 387 388
3 323 388 323
3 323 388 389
3 323 389 323
3 323 389 390
3 323 390 323
3 323 390 391
3 323 391 323
3 323 391 392
3 323 392 323
3 323 392 393
3 323 393 323
3 323 393 394
3 323 394 323
3 323 394 393
3 323 393 323
3 398 327 323
3 413 323 329
3 357 456 457
3 357 457 358
3 358 457 458
3 358 458 359
3 359 458 459
3 359 459 359
3 359 459 459
3 359 459 360
3 360 459 460
3 360 460 360
3 360 460 460
3 360 460 361
3 361 460 460
3 361 460 362
3 362 460 461
3 362 461 362
3 362 461 461
3 362 461 363
3 363 461 462
3 363 462 363
3 363 462 462
3 363 462 364
3 364 462 463
3 364 463 364
3 364 463 463
3 364 463 365
3 365 463 464
3 365 464 365
3 365 464 464
3 365 464 366
3 366 464 465
3 366 465 366
3 366 465 465
3 366 465 367
3 367 465 466
3 367 466 367
3 367 466 466
3 367 466 368
3 368 466 467
3 368 467 368
3 368 467 467
3 368 467 369
3 369 467 468
3 369 468 369
3 369 468 468
3 369 468 370
3 370 468 469
3 370 469 370
3 370 469 469
3 370 469 371
3 371 469 470
3 371 470 371
3 371 470 470
3 371 470 372
3 372 470 471
3 372 471 372
3 372 471 471
3 372 471 373
3 373 471 436
3 373 436 373
3 373 436 436
3 373 436 340
3 340 436 437
3 340 437 340
3 340 437 437
3 340 437 341
3 341 437 438
3 341 438 341
3 341 438 438
3 341 438 342
3 342 438 439
3 342 439 342
3 342 439 439
3 342 439 343
3 343 439 440
3 343 440 343
3 343 440 440
3 343 440 344
3 344 440 441
3 344 441 344
3 344 441 441
3 344 441 345
3 345 441 442
3 345 442 345
3 345 442 442
3 345 442 346
3 346 442 443
3 346 443 346
3 346 443 443
3 346 443 347
3 347 443 444
3 347 444 347
3 347 444 444
3 347 444 348
3 348 444 445
3 348 445 348
3 348 445 445
3 348 445 349
3 349 445 446
3 349 446 349
3 349 446 446
3 349 446 350
3 350 446 447
3 350 447 350
3 350 447 447
3 350 447 351
3 351 447 448
3 351 448 351
3 351 448 448
3 351 448 352
3 352 448 449
3 352 449 352
3 352 449 449
3 352 449 353
3 353 449 450
3 353 450 353
3 353 450 450
3 353 450 354
3 354 450 451
3 354 451 354
3 354 451 451
3 354 451 355
3 355 451 452
3 355 452 355
3 355 452 452
3 355 452 356
3 356 452 453
3 356 453 356
3 356 453 453
3 356 453 357
3 357 453 454
3 357 454 357
3 357 454 455
3 357 455 357
3 357 455 455
3 357 455 357
3 357 455 456
3 357 456 357
3 357 456 457
3 357 457 357
3 357 457 456
3 357 456 357
3 456 490 491
3 456 491 457
3 457 491 492
3 457 492 458
3 458 492 492
3 458 492 459
3 459 492 493
3 459 493 459
3 459 493 493
3 459 493 460
3 460 493 494
3 460 494 460
3 460 494 494
3 460 494 461
3 461 494 495
3 461 495 461
3 461 495 495
3 461 495 462
3 462 495 496
3 462 496 462
3 462 496 496
3 462 496 463
3 463 496 497
3 463 497 463
3 463 497 497
3 463 497 464
3 464 497 498
3 464 498 464
3 464 498 498
3 464 498 465
3 465 498 499
3 465 499 465
3 465 499 499
3 465 499 466
3 466 499 500
3 466 500 466
3 466 500 500
3 466 500 467
3 467 500 501
3 467 501 467
3 467 501 501
3 467 501 468
3 468 501 502
3 468 502 468
3 468 502 502
3 468 502 469
3 469 502 472
3 469 472 469
3 469 472 472
3 469 472 470
3 470 472 473
3 470 473 470
3 470 473 473
3 470 473 471
3 471 473 474
3 471 474 471
3 471 474 474
3 471 474 436
3 436 474 475
3 436 475 436
3 436 475 475
3 436 475 437
3 437 475 476
3 437 476 437
3 437 476 476
3 437 476 438
3 438 476 477
3 438 477 438
3 438 477 477
3 438 477 439
3 439 477 478
3 439 478 439
3 439 478 478
3 439 478 440
3 440 478 479
3 440 479 440
3 440 479 479
3 440 479 441
3 441 479 480
3 441 480 441
3 441 480 480
3 441 480 442
3 442 480 481
3 442 481 442
3 442 481 481
3 442 481 443
3 443 481 482
3 443 482 443
3 443 482 482
3 443 482 444
3 444 482 483
3 444 483 444
3 444 483 483
3 444 483 445
3 445 483 484
3 445 484 445
3 445 484 484
3 445 484 446
3 446 484 485
3 446 485 446
3 446 485 485
3 446 485 447
3 447 485 486
3 447 486 447
3 447 486 486
3 447 486 448
3 448 486 487
3 448 487 448
3 448 487 487
3 448 487 449
3 449 487 488
3 449 488 449
3 449 488 488
3 449 488 450
3 450 488 489
3 450 489 450
3 450 489 490
3 450 490 450
3 450 490 490
3 450 490 451
3 451 490 490
3 451 490 451
3 451 490 490
3 451 490 452
3 452 490 490
3 452 490 453
3 453 490 490
3 453 490 454
3 454 490 490
3 454 490 455
3 455 490 490
3 455 490 456
3 456 490 491
3 456 491 456
3 456 491 490
3 456 490 456
3 490 532 533
3 490 533 491
3 491 533 533
3 491 533 492
3 492 533 534
3 492 534 492
3 492 534 534
3 492 534 493
3 493 534 535
3 493 535 493
3 493 535 535
3 493 535 494
3 494 535 536
3 494 536 494
3 494 536 536
3 494 536 495
3 495 536 537
3 495 537 495
3 495 537 537
3 495 537 496
3 496 537 538
3 496 538 496
3 496 538 538
3 496 538 497
3 497 538 539
3 497 539 497
3 497 539 539
3 497 539 498
3 498 539 540
3 498 540 498
3 498 540 540
3 498 540 499
3 499 540 527
3 499 527 499
3 499 527 527
3 499 527 500
3 500 527 528
3 500 528 500
3 500 528 528
3 500 528 501
3 501 528 529
3 501 529 501
3 501 529 529
3 501 529 502
3 502 529 530
3 502 530 502
3 502 530 530
3 502 530 472
3 472 530 531
3 472 531 472
3 472 531 531
3 472 531 473
3 473 531 532
3 473 532 473
3 473 532 532
3 473 532 474
3 474 532 532
3 474 532 474
3 474 532 532
3 474 532 475
3 475 532 532
3 475 532 476
3 476 532 532
3 476 532 477
3 477 532 532
3 477 532 478
3 478 532 532
3 478 532 479
3 479 532 532
3 479 532 480
3 480 532 532
3 480 532 481
3 481 532 532
3 481 532 482
3 482 532 532
3 482 532 483
3 483 532 532
3 483 532 484
3 484 532 532
3 484 532 485
3 485 532 532
3 485 532 486
3 486 532 532
3 486 532 487
3 487 532 532
3 487 532 488
3 488 532 532
3 488 532 489
3 489 532 532
3 489 532 490
3 490 532 533
3 490 533 490
3 490 533 532
3 490 532 490
