ply
format ascii 1.0
element vertex 541
property float x
property float y
property float z
element face 1746
property list uchar int vertex_index
end_header
0.64587 -8.91537 -1.18437
0.64587 -8.91537 -1.08437
0.64587 -8.91537 -0.984365
0.64587 -8.91537 -0.884365
0.64587 -8.91537 -0.784365
0.628653 -8.91537 -0.713074
0.529903 -8.91537 -0.864008
0.472504 -8.91537 -1.02437
0.463726 -8.91537 -1.26923
0.50695 -8.91537 -1.42776
0.605069 -8.91537 -1.60238
0.64587 -8.91537 -1.64627
0.64587 -8.91537 -1.57083
0.64587 -8.91537 -1.47083
0.64587 -8.91537 -1.37083
0.64587 -8.91537 -1.28437
0.012279 -6.55411 2.92257
-0.002608 -6.55411 3.02289
-0.033507 -6.55411 3.11938
-0.079206 -6.55411 3.20893
-0.215896 -6.55411 3.35817
-0.355603 -6.55411 3.43267
-0.440707 -6.55411 3.4541
-0.575195 -6.55411 3.45672
-0.710615 -6.55411 3.41828
-0.824803 -6.55411 3.34269
-0.91347 -6.55411 3.23436
-0.968888 -6.55411 3.10128
-0.985023 -6.55411 3.00001
-0.97901 -6.55411 2.86731
-0.964158 -6.55411 2.79529
-0.928847 -6.55411 2.69817
-0.877891 -6.55411 2.60819
-0.813553 -6.55411 2.52941
-0.662566 -6.55411 2.41876
-0.601495 -6.55411 2.39415
-0.438036 -6.55411 2.36918
-0.37147 -6.55411 2.37671
-0.222132 -6.55411 2.43341
-0.166758 -6.55411 2.47364
-0.0597 -6.55411 2.60107
-0.029444 -6.55411 2.66305
0.012327 -6.55411 2.83765
0.902 -6.55411 -0.894832
0.899812 -6.55411 -0.878368
0.850736 -6.55411 -0.709001
0.773589 -6.55411 -0.556803
0.673914 -6.55411 -0.417482
0.596177 -6.55411 -0.331463
0.543363 -6.55411 -0.281727
0.367636 -6.55411 -0.159575
0.321037 -6.55411 -0.134333
0.103817 -6.55411 -0.056842
0.06939 -6.55411 -0.048708
-0.170585 -6.55411 -0.030737
-0.185736 -6.55411 -0.031067
-0.357753 -6.55411 -0.058296
-0.518296 -6.55411 -0.116141
-0.662003 -6.55411 -0.202089
-0.784256 -6.55411 -0.312728
-0.881321 -6.55411 -0.443935
-0.950411 -6.55411 -0.591074
-0.990462 -6.55411 -0.757087
-0.990895 -6.55411 -0.990944
-0.98862 -6.55411 -1.00802
-0.926095 -6.55411 -1.22944
-0.91605 -6.55411 -1.25372
-0.800691 -6.55411 -1.44631
-0.778031 -6.55411 -1.47612
-0.624056 -6.55411 -1.62733
-0.584681 -6.55411 -1.65829
-0.408523 -6.55411 -1.7607
-0.350462 -6.55411 -1.78605
-0.168703 -6.55411 -1.83767
-0.096262 -6.55411 -1.84905
0.247157 -6.55411 -1.8262
0.258399 -6.55411 -1.82337
0.484398 -6.55411 -1.73378
0.503972 -6.55411 -1.72295
0.682657 -6.55411 -1.58416
0.703327 -6.55411 -1.56308
0.826496 -6.55411 -1.38583
0.841121 -6.55411 -1.35682
0.902885 -6.55411 -1.15083
0.90751 -6.55411 -1.12056
0.182818 -4.19286 1.49033
0.16385 -4.19286 1.5993
0.130123 -4.19286 1.7015
0.082791 -4.19286 1.79394
0.023292 -4.19286 1.87399
-0.094564 -4.19286 1.97089
-0.168921 -4.19286 2.00444
-0.303592 -4.19286 2.02601
-0.43894 -4.19286 2.00053
-0.511668 -4.19286 1.96486
-0.568974 -4.19286 1.92489
-0.644396 -4.19286 1.84906
-0.70744 -4.19286 1.75632
-0.755596 -4.19286 1.65029
-0.787048 -4.19286 1.53513
-0.800737 -4.19286 1.41534
-0.796378 -4.19286 1.29554
-0.77446 -4.19286 1.18021
-0.731388 -4.19286 1.0617
-0.687645 -4.19286 0.982916
-0.638276 -4.19286 0.917777
-0.492376 -4.19286 0.806479
-0.37242 -4.19286 0.771581
-0.315191 -4.19286 0.768065
-0.263001 -4.19286 0.772665
-0.12346 -4.19286 0.82054
-0.046182 -4.19286 0.872239
0.042652 -4.19286 0.963731
0.107156 -4.19286 1.06464
0.145489 -4.19286 1.15659
0.173759 -4.19286 1.26542
0.18624 -4.19286 1.37787
0.481415 -4.19286 -0.141895
0.46471 -4.19286 -0.087201
0.378619 -4.19286 0.091055
0.350444 -4.19286 0.134703
0.216764 -4.19286 0.284435
0.180727 -4.19286 0.315916
0.009569 -4.19286 0.423476
-0.031375 -4.19286 0.442565
-0.248329 -4.19286 0.502178
-0.305652 -4.19286 0.507865
-0.351639 -4.19286 0.51064
-0.570195 -4.19286 0.487389
-0.634216 -4.19286 0.469525
-0.674782 -4.19286 0.45625
-0.852475 -4.19286 0.366119
-0.892737 -4.19286 0.338991
-1.03725 -4.19286 0.205731
-1.07122 -4.19286 0.16564
-1.17271 -4.19286 0.001463
-1.19665 -4.19286 -0.050674
-1.24962 -4.19286 -0.232651
-1.26519 -4.19286 -0.394887
-1.26376 -4.19286 -0.461088
-1.23597 -4.19286 -0.63283
-1.18023 -4.19286 -0.788462
-1.09747 -4.19286 -0.931128
-0.990394 -4.19286 -1.05603
-0.83693 -4.19286 -1.17455
-0.718609 -4.19286 -1.23614
-0.561206 -4.19286 -1.28585
-0.397387 -4.19286 -1.30511
-0.232732 -4.19286 -1.29307
-0.0489 -4.19286 -1.23996
0.059989 -4.19286 -1.18729
0.144325 -4.19286 -1.13232
0.26943 -4.19286 -1.02108
0.372433 -4.19286 -0.888018
0.449613 -4.19286 -0.737701
0.49815 -4.19286 -0.575371
0.51615 -4.19286 -0.395852
0.514758 -4.19286 -0.332753
0.602181 -1.8316 0.101575
0.589014 -1.8316 0.164847
0.525291 -1.8316 0.33703
0.495904 -1.8316 0.393092
0.386937 -1.8316 0.541746
0.343916 -1.8316 0.586946
0.198098 -1.8316 0.700155
0.14467 -1.8316 0.731611
-0.02649 -1.8316 0.800431
-0.086613 -1.8316 0.816054
-0.269549 -1.8316 0.835307
-0.332279 -1.8316 0.833845
-0.512606 -1.8316 0.802522
-0.573564 -1.8316 0.783641
-0.639764 -1.8316 0.739683
-0.654451 -1.8316 0.731745
-0.741592 -1.8316 0.682688
-0.922072 -1.8316 0.555584
-1.02344 -1.8316 0.426392
-1.09952 -1.8316 0.280868
-1.15093 -1.8316 0.106124
-1.1665 -1.8316 -0.039193
-1.15511 -1.8316 -0.202953
-1.11394 -1.8316 -0.361843
-1.04433 -1.8316 -0.510494
-0.948597 -1.8316 -0.643858
-0.829934 -1.8316 -0.757387
-0.692323 -1.8316 -0.847185
-0.540404 -1.8316 -0.910144
-0.37933 -1.8316 -0.944055
-0.214587 -1.8316 -0.947697
-0.05181 -1.8316 -0.920882
0.103406 -1.8316 -0.864477
0.245715 -1.8316 -0.780372
0.370199 -1.8316 -0.671431
0.472556 -1.8316 -0.541387
0.549248 -1.8316 -0.394715
0.597633 -1.8316 -0.236469
0.616057 -1.8316 -0.072106
0.528968 0.529654 0.111512
0.502062 0.529654 0.246245
0.449932 0.529654 0.375499
0.378029 0.529654 0.488793
0.291254 0.529654 0.591674
0.185369 0.529654 0.670234
0.071882 0.529654 0.727682
-0.059043 0.529654 0.764524
-0.194464 0.529654 0.776795
-0.329888 0.529654 0.764017
-0.460789 0.529654 0.726533
-0.595905 0.529654 0.656662
-0.729212 0.529654 0.545382
-0.750573 0.529654 0.521775
-0.847998 0.529654 0.378731
-0.862681 0.529654 0.349088
-0.917178 0.529654 0.185316
-0.922499 0.529654 0.158566
-0.931222 0.529654 -0.020306
-0.928057 0.529654 -0.055323
-0.888752 0.529655 -0.222507
-0.875918 0.529654 -0.256065
-0.792714 0.529654 -0.405791
-0.770893 0.529654 -0.435023
-0.650203 0.529654 -0.555974
-0.620969 0.529654 -0.578311
-0.471976 0.529654 -0.661311
-0.437669 0.529654 -0.674774
-0.271649 0.529654 -0.713441
-0.235169 0.529654 -0.716886
-0.064681 0.529654 -0.708075
-0.029178 0.529654 -0.70137
0.120483 0.529654 -0.650832
0.239881 0.529654 -0.570043
0.256899 0.529654 -0.558044
0.365791 0.529654 -0.452759
0.450699 0.529654 -0.30714
0.45869 0.529654 -0.292429
0.50709 0.529654 -0.162555
0.530731 0.529654 -0.026322
1.8121 2.89091 0.542644
1.80601 2.89091 0.665318
1.77266 2.89091 0.77967
1.71443 2.89091 0.88242
1.634 2.89091 0.971145
1.53412 2.89091 1.04393
1.4001 2.89091 1.10458
1.22987 2.89091 1.14301
1.19154 2.89091 1.1472
1.03171 2.89091 1.14679
0.886931 2.89091 1.12484
0.795542 2.89091 1.09985
0.668135 2.89091 1.05054
0.494851 2.89091 0.949789
0.467067 2.89091 0.929448
0.345085 2.89091 0.817756
0.258931 2.89091 0.706648
0.196472 2.89091 0.587147
0.160297 2.89091 0.46318
0.152665 2.89091 0.340731
0.173389 2.89091 0.220452
0.216975 2.89091 0.116457
0.338701 2.89091 -0.030795
0.447335 2.89091 -0.104853
0.575955 2.89091 -0.159337
0.739597 2.89091 -0.194121
0.766919 2.89091 -0.197572
0.926355 2.89091 -0.19815
1.08861 2.89091 -0.173485
1.23626 2.89091 -0.128917
1.38396 2.89091 -0.059638
1.53041 2.89091 0.041044
1.55356 2.89091 0.059964
1.65826 2.89091 0.169625
1.73772 2.89091 0.289864
1.78941 2.89091 0.415874
-0.292867 2.89091 0.381729
-0.32199 2.89091 0.486501
-0.370249 2.89091 0.584929
-0.436012 2.89091 0.673513
-0.51699 2.89091 0.749094
-0.61033 2.89091 0.808982
-0.712717 2.89091 0.851065
-0.820513 2.89091 0.873895
-0.925428 2.89091 0.877059
-1.08729 2.89091 0.843947
-1.18323 2.89091 0.798512
-1.26855 2.89091 0.736057
-1.3404 2.89091 0.658852
-1.39648 2.89091 0.569622
-1.43501 2.89091 0.471443
-1.45302 2.89091 0.387271
-1.44693 2.89091 0.210704
-1.41732 2.89091 0.108605
-1.36958 2.89091 0.012867
-1.30526 2.89091 -0.073383
-1.22644 2.89091 -0.147302
-1.13567 2.89091 -0.206413
-1.03591 2.89091 -0.248695
-0.930454 2.89091 -0.272658
-0.822824 2.89091 -0.27741
-0.716645 2.89091 -0.2627
-0.61552 2.89091 -0.228939
-0.522909 2.89091 -0.177194
-0.441995 2.89091 -0.10915
-0.375582 2.89091 -0.027053
-0.325996 2.89091 0.066363
-0.295016 2.89091 0.167964
-0.283807 2.89091 0.274303
2.87268 5.25217 0.943798
2.84995 5.25217 1.0621
2.80552 5.25217 1.17379
2.74102 5.25217 1.27515
2.65871 5.25217 1.36285
2.56139 5.25217 1.43403
2.45236 5.25217 1.48638
2.33524 5.25217 1.51824
2.20196 5.25217 1.52808
2.06113 5.25217 1.50999
1.94519 5.25217 1.47144
1.83804 5.25217 1.4129
1.74324 5.25217 1.3363
1.66398 5.25217 1.24416
1.60292 5.25217 1.13951
1.56217 5.25217 1.02581
1.54364 5.25217 0.914096
1.54292 5.25217 0.816726
1.56334 5.25217 0.697723
1.60587 5.25217 0.584542
1.66916 5.25217 0.48111
1.75111 5.25217 0.391053
1.84895 5.25217 0.317556
1.95932 5.25217 0.263235
2.07839 5.25217 0.230038
2.20203 5.25217 0.21916
2.32589 5.25217 0.231
2.44566 5.25217 0.265142
2.55716 5.25217 0.320375
2.65649 5.25217 0.394738
2.74025 5.25217 0.485592
2.80555 5.25217 0.589728
2.85022 5.25217 0.70348
2.87282 5.25217 0.822881
-0.443802 5.25217 0.705369
-0.459729 5.25217 0.811276
-0.494736 5.25217 0.912284
-0.547577 5.25217 1.00491
-0.616383 5.25217 1.08598
-0.698737 5.25217 1.15274
-0.791766 5.25217 1.20295
-0.892259 5.25217 1.23497
-0.996771 5.25217 1.24778
-1.10176 5.25217 1.24103
-1.20369 5.25217 1.21501
-1.29915 5.25217 1.17065
-1.38497 5.25217 1.10947
-1.45829 5.25217 1.03353
-1.51669 5.25217 0.945389
-1.5582 5.25217 0.84798
-1.57938 5.25217 0.762215
-1.58555 5.25217 0.638574
-1.57041 5.25217 0.533598
-1.53646 5.25217 0.433169
-1.48482 5.25217 0.340693
-1.4172 5.25217 0.259327
-1.33584 5.25217 0.191862
-1.24349 5.25217 0.140629
-1.14327 5.25217 0.10741
-1.03858 5.25217 0.093382
-0.933002 5.25217 0.099068
-0.830134 5.25217 0.124317
-0.733514 5.25217 0.168306
-0.646477 5.25217 0.229562
-0.572039 5.25217 0.30601
-0.512789 5.25217 0.395037
-0.470797 5.25217 0.49358
-0.447532 5.25217 0.598232
2.84897 7.61342 1.82659
2.98988 7.61342 1.92847
3.06048 7.61342 2.02074
3.0417 7.61342 2.0944
2.90139 7.61342 2.18706
2.86488 7.61342 2.21091
2.70127 7.61342 2.33555
2.67179 7.61342 2.359
2.5164 7.61342 2.46877
2.39417 7.61342 2.50927
2.29546 7.61342 2.47694
2.22907 7.61342 2.40419
2.10872 7.61342 2.20098
2.04287 7.61342 2.07628
1.9829 7.61342 1.95028
1.93021 7.61342 1.82374
1.89402 7.61342 1.71963
1.85963 7.61342 1.57681
1.84777 7.61342 1.48109
1.84735 7.61342 1.37236
1.86562 7.61342 1.27331
1.90826 7.61342 1.18489
1.98544 7.61342 1.11131
2.18872 7.61342 1.08976
2.25172 7.61342 1.15371
2.31676 7.61342 1.25718
2.38838 7.61342 1.38589
2.46269 7.61342 1.5077
2.55382 7.61342 1.61513
2.59805 7.61342 1.6529
2.7092 7.61342 1.73496
3.26119 7.61342 0.269857
3.25117 7.61342 0.374255
3.14978 7.61342 0.494754
3.12804 7.61342 0.513792
2.97096 7.61342 0.63209
2.92673 7.61342 0.664407
2.78358 7.61342 0.781189
2.74371 7.61342 0.820063
2.57329 7.61342 0.876845
2.52217 7.61342 0.799335
2.47348 7.61342 0.643575
2.4594 7.61342 0.588217
2.39938 7.61342 0.384001
2.38597 7.61342 0.352154
2.27783 7.61342 0.201447
2.18356 7.61342 0.107496
2.08674 7.61342 0.002164
2.05452 7.61342 -0.048963
2.11119 7.61342 -0.257665
2.20568 7.61342 -0.324521
2.30447 7.61342 -0.352598
2.40538 7.61342 -0.351669
2.50845 7.61342 -0.328283
2.61321 7.61342 -0.286547
2.71835 7.61342 -0.229881
2.82214 7.61342 -0.161674
2.9227 7.61342 -0.085383
2.98855 7.61342 -0.03105
3.03441 7.61342 0.01096
3.1016 7.61342 0.075373
3.16058 7.61342 0.135082
-0.36493 7.61342 0.917941
-0.377433 7.61342 1.00195
-0.360554 7.61342 1.05128
-0.325543 7.61342 1.11444
-0.350732 7.61342 1.21161
-0.465132 7.61342 1.27393
-0.631679 7.61342 1.35937
-0.727166 7.61342 1.40736
-0.825944 7.61342 1.4359
-0.931573 7.61342 1.44639
-1.04172 7.61342 1.43646
-1.14224 7.61342 1.40759
-1.23229 7.61342 1.36297
-1.31382 7.61342 1.30274
-1.38676 7.61342 1.22492
-1.43838 7.61342 1.14548
-1.4766 7.61342 1.05794
-1.50108 7.61342 0.955144
-1.50368 7.61342 0.811966
-1.51774 7.61342 0.781347
-1.61479 7.61342 0.659101
-1.57334 7.61342 0.561218
-1.51806 7.61342 0.537232
-1.32297 7.61342 0.454693
-1.23066 7.61342 0.384962
-1.13273 7.61342 0.337756
-1.0479 7.61342 0.314223
-0.942961 7.61342 0.303018
-0.837726 7.61342 0.311297
-0.735787 7.61342 0.33879
-0.640628 7.61342 0.384568
-0.555503 7.61342 0.447072
-0.483321 7.61342 0.524172
-0.426551 7.61342 0.613237
-0.387133 7.61342 0.711222
-0.366413 7.61342 0.814781
0.830543 9.97468 1.58539
0.887581 9.97468 1.63915
0.940029 9.97468 1.73682
0.85961 9.97468 1.84357
0.797197 9.97468 1.87175
0.703752 9.97468 1.89623
0.598509 9.97468 1.91487
0.499254 9.97468 1.93335
0.331135 9.97468 1.98636
0.231356 9.97468 2.01044
0.122574 9.97468 2.02384
0.030955 9.97468 2.02208
-0.05617 9.97468 2.0018
-0.15133 9.97468 1.91772
-0.175727 9.97468 1.80916
-0.193073 9.97468 1.69724
-0.216716 9.97468 1.57445
-0.249839 9.97468 1.48716
-0.254372 9.97468 1.34035
-0.202135 9.97468 1.19904
-0.104493 9.97468 1.08192
0.022652 9.97468 1.0101
0.164872 9.97468 1.00113
0.263182 9.97468 1.0082
0.357987 9.97468 0.99693
0.446854 9.97468 1.02049
0.526367 9.97468 1.1439
0.55309 9.97468 1.25152
0.584745 9.97468 1.35271
0.666741 9.97468 1.45096
0.746698 9.97468 1.51682
-1.91698 9.97468 0.574537
-1.95964 9.97468 0.689707
-2.03428 9.97468 0.789298
-2.12349 9.97468 0.849671
-2.19907 9.97468 0.864974
-2.28156 9.97468 0.870889
-2.36968 9.97468 0.885861
-2.45145 9.97468 0.817848
-2.48255 9.97468 0.708131
-2.52389 9.97468 0.597935
-2.57817 9.97468 0.54614
-2.6754 9.97468 0.472101
-2.74981 9.97468 0.399787
-2.73522 9.97468 0.285047
-2.65645 9.97468 0.229985
-2.55051 9.97468 0.191706
-2.43592 9.97468 0.153784
-2.34158 9.97468 0.108319
-2.22965 9.97468 0.067471
-2.12308 9.97468 0.050777
-2.00454 9.97468 0.090822
-1.96575 9.97468 0.226309
-1.94747 9.97468 0.340158
-1.91292 9.97468 0.460435
0.84319 12.3359 1.22559
0.750094 12.3359 1.27018
0.65598 12.3359 1.29444
0.600284 12.3359 1.29546
0.487346 12.3359 1.23828
0.483398 12.3359 1.14785
0.581509 12.3359 1.1285
0.679619 12.3359 1.10916
0.77773 12.3359 1.08981
0.87973 12.3359 1.06969
0.97784 12.3359 1.05035
1.15223 12.3359 1.03054
1.06176 12.3359 1.0756
0.995043 12.3359 1.11514
3 1 43 44
3 1 44 1
3 1 44 45
3 1 45 1
3 1 45 45
3 1 45 2
3 2 45 46
3 2 46 2
3 2 46 47
3 2 47 2
3 2 47 48
3 2 48 2
3 2 48 48
3 2 48 3
3 3 48 49
3 3 49 3
3 3 49 50
3 3 50 3
3 3 50 50
3 3 50 4
3 4 50 51
3 4 51 4
3 4 51 52
3 4 52 4
3 4 52 52
3 4 52 5
3 5 52 53
3 5 53 5
3 5 53 54
3 5 54 5
3 5 54 54
3 5 54 6
3 6 54 55
3 6 55 6
3 6 55 56
3 6 56 6
3 6 56 56
3 6 56 7
3 7 56 57
3 7 57 7
3 7 57 58
3 7 58 7
3 7 58 59
3 7 59 7
3 7 59 59
3 7 59 8
3 8 59 60
3 8 60 8
3 8 60 61
3 8 61 8
3 8 61 62
3 8 62 8
3 8 62 63
3 8 63 8
3 8 63 64
3 8 64 8
3 8 64 64
3 8 64 9
3 9 64 65
3 9 65 9
3 9 65 66
3 9 66 9
3 9 66 67
3 9 67 9
3 9 67 67
3 9 67 10
3 10 67 68
3 10 68 10
3 10 68 69
3 10 69 10
3 10 69 69
3 10 69 11
3 11 69 70
3 11 70 11
3 11 70 71
3 11 71 11
3 11 71 71
3 11 71 12
3 12 71 72
3 12 72 12
3 12 72 73
3 12 73 12
3 12 73 73
3 12 73 13
3 13 73 74
3 13 74 13
3 13 74 75
3 13 75 13
3 13 75 75
3 13 75 14
3 14 75 76
3 14 76 14
3 14 76 77
3 14 77 14
3 14 77 77
3 14 77 15
3 15 77 78
3 15 78 15
3 15 78 79
3 15 79 15
3 15 79 80
3 15 80 15
3 15 80 80
3 15 80 0
3 0 80 80
3 0 80 1
3 1 80 81
3 1 81 1
3 1 81 82
3 1 82 1
3 1 82 83
3 1 83 1
3 1 83 84
3 1 84 1
3 1 84 43
3 1 43 1
3 1 43 43
3 1 43 1
3 43 156 157
3 43 157 43
3 43 157 157
3 43 157 44
3 44 157 157
3 44 157 45
3 45 157 117
3 45 117 45
3 45 117 117
3 45 117 46
3 46 117 118
3 46 118 46
3 46 118 119
3 46 119 46
3 46 119 119
3 46 119 47
3 47 119 120
3 47 120 47
3 47 120 120
3 47 120 48
3 48 120 121
3 48 121 48
3 48 121 121
3 48 121 49
3 49 121 121
3 49 121 50
3 50 121 122
3 50 122 50
3 50 122 123
3 50 123 50
3 50 123 123
3 50 123 51
3 51 123 123
3 51 123 52
3 52 123 124
3 52 124 52
3 52 124 125
3 52 125 52
3 52 125 125
3 52 125 53
3 53 125 125
3 53 125 54
3 54 125 126
3 54 126 54
3 54 126 127
3 54 127 54
3 54 127 127
3 54 127 55
3 55 127 128
3 55 128 55
3 55 128 128
3 55 128 56
3 56 128 129
3 56 129 56
3 56 129 129
3 56 129 57
3 57 129 130
3 57 130 57
3 57 130 130
3 57 130 58
3 58 130 131
3 58 131 58
3 58 131 131
3 58 131 59
3 59 131 132
3 59 132 59
3 59 132 132
3 59 132 60
3 60 132 133
3 60 133 60
3 60 133 133
3 60 133 61
3 61 133 134
3 61 134 61
3 61 134 134
3 61 134 62
3 62 134 135
3 62 135 62
3 62 135 135
3 62 135 63
3 63 135 136
3 63 136 63
3 63 136 136
3 63 136 64
3 64 136 137
3 64 137 64
3 64 137 137
3 64 137 65
3 65 137 138
3 65 138 65
3 65 138 138
3 65 138 66
3 66 138 139
3 66 139 66
3 66 139 139
3 66 139 67
3 67 139 140
3 67 140 67
3 67 140 140
3 67 140 68
3 68 140 141
3 68 141 68
3 68 141 141
3 68 141 69
3 69 141 142
3 69 142 69
3 69 142 142
3 69 142 70
3 70 142 143
3 70 143 70
3 70 143 143
3 70 143 71
3 71 143 144
3 71 144 71
3 71 144 144
3 71 144 72
3 72 144 144
3 72 144 73
3 73 144 145
3 73 145 73
3 73 145 145
3 73 145 74
3 74 145 146
3 74 146 74
3 74 146 146
3 74 146 75
3 75 146 147
3 75 147 75
3 75 147 148
3 75 148 75
3 75 148 148
3 75 148 76
3 76 148 148
3 76 148 77
3 77 148 149
3 77 149 77
3 77 149 149
3 77 149 78
3 78 149 150
3 78 150 78
3 78 150 150
3 78 150 79
3 79 150 151
3 79 151 79
3 79 151 151
3 79 151 80
3 80 151 152
3 80 152 80
3 80 152 152
3 80 152 81
3 81 152 153
3 81 153 81
3 81 153 153
3 81 153 82
3 82 153 154
3 82 154 82
3 82 154 154
3 82 154 83
3 83 154 155
3 83 155 83
3 83 155 155
3 83 155 84
3 84 155 155
3 84 155 43
3 43 155 156
3 43 156 43
3 43 156 156
3 43 156 43
3 158 121 120
3 158 158 121
3 158 121 121
3 158 159 121
3 159 122 121
3 159 159 122
3 159 122 122
3 159 160 122
3 160 123 122
3 160 160 123
3 160 123 123
3 160 161 123
3 161 124 123
3 161 161 124
3 161 125 124
3 161 161 125
3 161 125 125
3 161 162 125
3 162 125 125
3 162 163 125
3 163 126 125
3 163 163 126
3 163 127 126
3 163 163 127
3 163 127 127
3 163 164 127
3 164 164 108
3 164 109 108
3 164 164 109
3 164 109 109
3 164 165 109
3 165 110 109
3 165 165 110
3 165 111 110
3 165 165 111
3 165 112 111
3 165 165 112
3 165 112 112
3 165 166 112
3 166 113 112
3 166 166 113
3 166 114 113
3 166 166 114
3 166 115 114
3 166 166 115
3 166 115 115
3 166 167 115
3 167 116 115
3 167 167 116
3 167 85 116
3 167 167 85
3 167 85 85
3 167 168 85
3 168 86 85
3 168 168 86
3 168 87 86
3 168 168 87
3 168 88 87
3 168 168 88
3 168 88 88
3 168 169 88
3 169 89 88
3 169 169 89
3 169 90 89
3 169 169 90
3 169 90 90
3 169 170 90
3 170 91 90
3 170 170 91
3 170 92 91
3 170 170 92
3 170 93 92
3 170 170 93
3 170 93 93
3 170 171 93
3 171 94 93
3 171 171 94
3 171 95 94
3 171 171 95
3 171 95 95
3 171 172 95
3 172 96 95
3 172 172 96
3 172 97 96
3 172 172 97
3 172 97 97
3 172 173 97
3 173 98 97
3 173 173 98
3 173 98 98
3 173 174 98
3 174 99 98
3 174 174 99
3 174 100 99
3 174 174 100
3 174 100 100
3 174 175 100
3 175 101 100
3 175 175 101
3 175 102 101
3 175 175 102
3 175 103 102
3 175 175 103
3 175 103 103
3 175 176 103
3 176 104 103
3 176 176 104
3 176 105 104
3 176 176 105
3 176 106 105
3 176 176 106
3 176 106 106
3 176 177 106
3 177 107 106
3 177 177 107
3 177 108 107
3 177 177 108
3 177 177 127
3 177 127 127
3 177 178 127
3 178 128 127
3 178 178 128
3 178 129 128
3 178 178 129
3 178 129 129
3 178 179 129
3 179 130 129
3 179 179 130
3 179 131 130
3 179 179 131
3 179 131 131
3 179 180 131
3 180 132 131
3 180 180 132
3 180 132 132
3 180 181 132
3 181 133 132
3 181 181 133
3 181 133 133
3 181 182 133
3 182 134 133
3 182 182 134
3 182 135 134
3 182 182 135
3 182 135 135
3 182 183 135
3 183 136 135
3 183 183 136
3 183 137 136
3 183 183 137
3 183 137 137
3 183 184 137
3 184 138 137
3 184 184 138
3 184 139 138
3 184 184 139
3 184 139 139
3 184 185 139
3 185 140 139
3 185 185 140
3 185 140 140
3 185 186 140
3 186 141 140
3 186 186 141
3 186 142 141
3 186 186 142
3 186 142 142
3 186 187 142
3 187 143 142
3 187 187 143
3 187 144 143
3 187 187 144
3 187 144 144
3 187 188 144
3 188 145 144
3 188 188 145
3 188 146 145
3 188 188 146
3 188 146 146
3 188 189 146
3 189 147 146
3 189 189 147
3 189 148 147
3 189 189 148
3 189 148 148
3 189 190 148
3 190 149 148
3 190 190 149
3 190 149 149
3 190 191 149
3 191 150 149
3 191 191 150
3 191 151 150
3 191 191 151
3 191 151 151
3 191 192 151
3 192 152 151
3 192 192 152
3 192 153 152
3 192 192 153
3 192 153 153
3 192 193 153
3 193 154 153
3 193 193 154
3 193 155 154
3 193 193 155
3 193 155 155
3 193 194 155
3 194 156 155
3 194 194 156
3 194 156 156
3 194 195 156
3 195 157 156
3 195 195 157
3 195 117 157
3 195 195 117
3 195 117 117
3 195 196 117
3 196 117 117
3 196 158 117
3 158 118 117
3 158 158 118
3 158 119 118
3 158 158 119
3 158 120 119
3 158 158 120
3 158 120 120
3 158 158 120
3 108 177 164
3 127 164 177
3 158 197 198
3 158 198 158
3 158 198 198
3 158 198 159
3 159 198 198
3 159 198 160
3 160 198 199
3 160 199 160
3 160 199 199
3 160 199 161
3 161 199 200
3 161 200 161
3 161 200 200
3 161 200 162
3 162 200 201
3 162 201 162
3 162 201 201
3 162 201 163
3 163 201 202
3 163 202 163
3 163 202 202
3 163 202 164
3 164 202 203
3 164 203 164
3 164 203 203
3 164 203 165
3 165 203 204
3 165 204 165
3 165 204 204
3 165 204 166
3 166 204 205
3 166 205 166
3 166 205 205
3 166 205 167
3 167 205 206
3 167 206 167
3 167 206 206
3 167 206 168
3 168 206 207
3 168 207 168
3 168 207 207
3 168 207 169
3 169 207 208
3 169 208 169
3 169 208 208
3 169 208 170
3 170 208 209
3 170 209 170
3 170 209 209
3 170 209 171
3 171 209 210
3 171 210 171
3 171 210 210
3 171 210 172
3 172 210 211
3 172 211 172
3 172 211 211
3 172 211 173
3 173 211 211
3 173 211 174
3 174 211 212
3 174 212 174
3 174 212 212
3 174 212 175
3 175 212 213
3 175 213 175
3 175 213 213
3 175 213 176
3 176 213 214
3 176 214 176
3 176 214 215
3 176 215 176
3 176 215 215
3 176 215 177
3 177 215 216
3 177 216 177
3 177 216 216
3 177 216 178
3 178 216 217
3 178 217 178
3 178 217 217
3 178 217 179
3 179 217 218
3 179 218 179
3 179 218 218
3 179 218 180
3 180 218 219
3 180 219 180
3 180 219 219
3 180 219 181
3 181 219 220
3 181 220 181
3 181 220 220
3 181 220 182
3 182 220 221
3 182 221 182
3 182 221 221
3 182 221 183
3 183 221 222
3 183 222 183
3 183 222 222
3 183 222 184
3 184 222 223
3 184 223 184
3 184 223 223
3 184 223 185
3 185 223 224
3 185 224 185
3 185 224 225
3 185 225 185
3 185 225 225
3 185 225 186
3 186 225 226
3 186 226 186
3 186 226 226
3 186 226 187
3 187 226 227
3 187 227 187
3 187 227 227
3 187 227 188
3 188 227 228
3 188 228 188
3 188 228 228
3 188 228 189
3 189 228 229
3 189 229 189
3 189 229 229
3 189 229 190
3 190 229 230
3 190 230 190
3 190 230 230
3 190 230 191
3 191 230 231
3 191 231 191
3 191 231 231
3 191 231 192
3 192 231 232
3 192 232 192
3 192 232 232
3 192 232 193
3 193 232 233
3 193 233 193
3 193 233 233
3 193 233 194
3 194 233 234
3 194 234 194
3 194 234 235
3 194 235 194
3 194 235 235
3 194 235 195
3 195 235 236
3 195 236 195
3 195 236 236
3 195 236 196
3 196 236 236
3 196 236 158
3 158 236 197
3 158 197 158
3 158 197 197
3 158 197 158
3 197 272 237
3 197 237 197
3 197 237 237
3 197 237 198
3 198 237 238
3 198 238 198
3 198 238 239
3 198 239 198
3 198 239 239
3 198 239 199
3 199 239 240
3 199 240 199
3 199 240 241
3 199 241 199
3 199 241 241
3 199 241 200
3 200 241 242
3 200 242 200
3 200 242 243
3 200 243 200
3 200 243 243
3 200 243 201
3 201 243 244
3 201 244 201
3 201 244 245
3 201 245 201
3 201 245 245
3 201 245 202
3 202 245 246
3 202 246 202
3 202 246 247
3 202 247 202
3 202 247 247
3 202 247 203
3 203 247 248
3 203 248 203
3 203 248 248
3 203 248 204
3 204 248 249
3 204 249 204
3 204 249 250
3 204 250 204
3 204 250 250
3 204 250 205
3 205 250 251
3 205 251 205
3 205 251 252
3 205 252 205
3 205 252 252
3 205 252 206
3 206 252 253
3 206 253 206
3 206 253 253
3 206 253 207
3 207 253 254
3 207 254 207
3 207 254 254
3 207 254 208
3 208 254 255
3 208 255 208
3 208 255 255
3 208 255 209
3 209 255 256
3 209 256 209
3 209 256 256
3 209 256 210
3 210 256 256
3 210 256 211
3 211 305 211
3 211 305 305
3 211 305 212
3 212 305 273
3 212 273 212
3 212 273 274
3 212 274 212
3 212 274 274
3 212 274 213
3 213 274 275
3 213 275 213
3 213 275 276
3 213 276 213
3 213 276 277
3 213 277 213
3 213 277 277
3 213 277 214
3 214 277 278
3 214 278 214
3 214 278 278
3 214 278 215
3 215 278 279
3 215 279 215
3 215 279 280
3 215 280 215
3 215 280 281
3 215 281 215
3 215 281 281
3 215 281 216
3 216 281 282
3 216 282 216
3 216 282 283
3 216 283 216
3 216 283 283
3 216 283 217
3 217 283 284
3 217 284 217
3 217 284 285
3 217 285 217
3 217 285 286
3 217 286 217
3 217 286 286
3 217 286 218
3 218 286 287
3 218 287 218
3 218 287 288
3 218 288 218
3 218 288 288
3 218 288 219
3 219 288 289
3 219 289 219
3 219 289 290
3 219 290 219
3 219 290 291
3 219 291 219
3 219 291 291
3 219 291 220
3 220 291 292
3 220 292 220
3 220 292 293
3 220 293 220
3 220 293 293
3 220 293 221
3 221 293 294
3 221 294 221
3 221 294 295
3 221 295 221
3 221 295 296
3 221 296 221
3 221 296 296
3 221 296 222
3 222 296 297
3 222 297 222
3 222 297 298
3 222 298 222
3 222 298 298
3 222 298 223
3 223 298 299
3 223 299 223
3 223 299 300
3 223 300 223
3 223 300 300
3 223 300 224
3 224 300 301
3 224 301 224
3 224 301 302
3 224 302 224
3 224 302 302
3 224 302 225
3 225 302 303
3 225 303 225
3 225 303 304
3 225 304 225
3 225 304 305
3 225 305 225
3 225 305 305
3 225 305 226
3 226 256 226
3 226 256 257
3 226 257 226
3 226 257 257
3 226 257 227
3 227 257 258
3 227 258 227
3 227 258 258
3 227 258 228
3 228 258 259
3 228 259 228
3 228 259 259
3 228 259 229
3 229 259 260
3 229 260 229
3 229 260 260
3 229 260 230
3 230 260 261
3 230 261 230
3 230 261 261
3 230 261 231
3 231 261 262
3 231 262 231
3 231 262 262
3 231 262 232
3 232 262 263
3 232 263 232
3 232 263 264
3 232 264 232
3 232 264 264
3 232 264 233
3 233 264 265
3 233 265 233
3 233 265 266
3 233 266 233
3 233 266 266
3 233 266 234
3 234 266 267
3 234 267 234
3 234 267 267
3 234 267 235
3 235 267 268
3 235 268 235
3 235 268 269
3 235 269 235
3 235 269 269
3 235 269 236
3 236 269 269
3 236 269 197
3 197 269 270
3 197 270 197
3 197 270 271
3 197 271 197
3 197 271 272
3 197 272 197
3 197 272 272
3 197 272 197
3 256 209 226
3 305 225 212
3 237 306 306
3 237 306 238
3 238 306 307
3 238 307 238
3 238 307 307
3 238 307 239
3 239 307 308
3 239 308 239
3 239 308 308
3 239 308 240
3 240 308 309
3 240 309 240
3 240 309 309
3 240 309 241
3 241 309 310
3 241 310 241
3 241 310 310
3 241 310 242
3 242 310 311
3 242 311 242
3 242 311 311
3 242 311 243
3 243 311 312
3 243 312 243
3 243 312 312
3 243 312 244
3 244 312 313
3 244 313 244
3 244 313 313
3 244 313 245
3 245 313 314
3 245 314 245
3 245 314 314
3 245 314 246
3 246 314 315
3 246 315 246
3 246 315 315
3 246 315 247
3 247 315 316
3 247 316 247
3 247 316 316
3 247 316 248
3 248 316 317
3 248 317 248
3 248 317 317
3 248 317 249
3 249 317 318
3 249 318 249
3 249 318 318
3 249 318 250
3 250 318 319
3 250 319 250
3 250 319 319
3 250 319 251
3 251 319 319
3 251 319 252
3 252 319 320
3 252 320 252
3 252 320 320
3 252 320 253
3 253 320 321
3 253 321 253
3 253 321 321
3 253 321 254
3 254 321 322
3 254 322 254
3 254 322 322
3 254 322 255
3 255 322 323
3 255 323 255
3 255 323 323
3 255 323 256
3 256 323 324
3 256 324 256
3 256 324 324
3 256 324 257
3 257 324 325
3 257 325 257
3 257 325 325
3 257 325 258
3 258 325 326
3 258 326 258
3 258 326 326
3 258 326 259
3 259 326 327
3 259 327 259
3 259 327 327
3 259 327 260
3 260 327 328
3 260 328 260
3 260 328 328
3 260 328 261
3 261 328 329
3 261 329 261
3 261 329 329
3 261 329 262
3 262 329 330
3 262 330 262
3 262 330 330
3 262 330 263
3 263 330 331
3 263 331 263
3 263 331 331
3 263 331 264
3 264 331 332
3 264 332 264
3 264 332 332
3 264 332 265
3 265 332 333
3 265 333 265
3 265 333 333
3 265 333 266
3 266 333 334
3 266 334 266
3 266 334 334
3 266 334 267
3 267 334 335
3 267 335 267
3 267 335 335
3 267 335 268
3 268 335 336
3 268 336 268
3 268 336 336
3 268 336 269
3 269 336 337
3 269 337 269
3 269 337 337
3 269 337 270
3 270 337 338
3 270 338 270
3 270 338 338
3 270 338 271
3 271 338 339
3 271 339 271
3 271 339 339
3 271 339 272
3 272 339 339
3 272 339 237
3 237 339 306
3 237 306 237
3 237 306 306
3 237 306 237
3 273 340 341
3 273 341 273
3 273 341 341
3 273 341 274
3 274 341 342
3 274 342 274
3 274 342 342
3 274 342 275
3 275 342 343
3 275 343 275
3 275 343 343
3 275 343 276
3 276 343 344
3 276 344 276
3 276 344 344
3 276 344 277
3 277 344 345
3 277 345 277
3 277 345 345
3 277 345 278
3 278 345 346
3 278 346 278
3 278 346 346
3 278 346 279
3 279 346 347
3 279 347 279
3 279 347 347
3 279 347 280
3 280 347 348
3 280 348 280
3 280 348 348
3 280 348 281
3 281 348 349
3 281 349 281
3 281 349 349
3 281 349 282
3 282 349 350
3 282 350 282
3 282 350 350
3 282 350 283
3 283 350 351
3 283 351 283
3 283 351 351
3 283 351 284
3 284 351 352
3 284 352 284
3 284 352 352
3 284 352 285
3 285 352 353
3 285 353 285
3 285 353 353
3 285 353 286
3 286 353 354
3 286 354 286
3 286 354 354
3 286 354 287
3 287 354 355
3 287 355 287
3 287 355 355
3 287 355 288
3 288 355 356
3 288 356 288
3 288 356 356
3 288 356 289
3 289 356 357
3 289 357 289
3 289 357 357
3 289 357 290
3 290 357 358
3 290 358 290
3 290 358 358
3 290 358 291
3 291 358 359
3 291 359 291
3 291 359 359
3 291 359 292
3 292 359 360
3 292 360 292
3 292 360 360
3 292 360 293
3 293 360 361
3 293 361 293
3 293 361 361
3 293 361 294
3 294 361 362
3 294 362 294
3 294 362 362
3 294 362 295
3 295 362 363
3 295 363 295
3 295 363 363
3 295 363 296
3 296 363 364
3 296 364 296
3 296 364 364
3 296 364 297
3 297 364 365
3 297 365 297
3 297 365 366
3 297 366 297
3 297 366 366
3 297 366 298
3 298 366 367
3 298 367 298
3 298 367 367
3 298 367 299
3 299 367 368
3 299 368 299
3 299 368 368
3 299 368 300
3 300 368 369
3 300 369 300
3 300 369 369
3 300 369 301
3 301 369 370
3 301 370 301
3 301 370 370
3 301 370 302
3 302 370 371
3 302 371 302
3 302 371 371
3 302 371 303
3 303 371 372
3 303 372 303
3 303 372 372
3 303 372 304
3 304 372 373
3 304 373 304
3 304 373 373
3 304 373 305
3 305 373 373
3 305 373 273
3 273 373 340
3 273 340 273
3 273 340 340
3 273 340 273
3 306 398 398
3 306 398 307
3 307 398 398
3 307 398 308
3 308 398 398
3 308 398 309
3 309 398 398
3 309 398 310
3 310 398 398
3 310 398 311
3 311 413 311
3 311 413 413
3 311 413 312
3 312 413 413
3 312 413 313
3 313 413 413
3 313 413 314
3 314 413 413
3 314 413 315
3 315 413 414
3 315 414 315
3 315 414 415
3 315 415 315
3 315 415 415
3 315 415 316
3 316 415 416
3 316 416 316
3 316 416 417
3 316 417 316
3 316 417 418
3 316 418 316
3 316 418 418
3 316 418 317
3 317 418 419
3 317 419 317
3 317 419 420
3 317 420 317
3 317 420 420
3 317 420 318
3 318 420 421
3 318 421 318
3 318 421 422
3 318 422 318
3 318 422 423
3 318 423 318
3 318 423 423
3 318 423 319
3 319 423 424
3 319 424 319
3 319 424 425
3 319 425 319
3 319 425 426
3 319 426 319
3 319 426 426
3 319 426 320
3 320 426 427
3 320 427 320
3 320 427 428
3 320 428 320
3 320 428 428
3 320 428 321
3 321 428 429
3 321 429 321
3 321 429 430
3 321 430 321
3 321 430 431
3 321 431 321
3 321 431 431
3 321 431 322
3 322 431 432
3 322 432 322
3 322 432 433
3 322 433 322
3 322 433 433
3 322 433 323
3 323 433 434
3 323 434 323
3 323 434 435
3 323 435 323
3 323 435 435
3 323 435 324
3 324 435 405
3 324 405 324
3 324 405 406
3 324 406 324
3 324 406 406
3 324 406 325
3 325 406 407
3 325 407 325
3 325 407 408
3 325 408 325
3 325 408 409
3 325 409 325
3 325 409 409
3 325 409 326
3 326 409 410
3 326 410 326
3 326 410 411
3 326 411 326
3 326 411 411
3 326 411 327
3 327 411 412
3 327 412 327
3 327 412 413
3 327 413 327
3 327 398 327
3 327 398 398
3 327 398 328
3 328 398 399
3 328 399 328
3 328 399 400
3 328 400 328
3 328 400 401
3 328 401 328
3 328 401 401
3 328 401 329
3 329 401 402
3 329 402 329
3 329 402 403
3 329 403 329
3 329 403 403
3 329 403 330
3 330 403 404
3 330 404 330
3 330 404 374
3 330 374 330
3 330 374 375
3 330 375 330
3 330 375 375
3 330 375 331
3 331 375 376
3 331 376 331
3 331 376 377
3 331 377 331
3 331 377 378
3 331 378 331
3 331 378 378
3 331 378 332
3 332 378 379
3 332 379 332
3 332 379 380
3 332 380 332
3 332 380 381
3 332 381 332
3 332 381 381
3 332 381 333
3 333 381 382
3 333 382 333
3 333 382 383
3 333 383 333
3 333 383 383
3 333 383 334
3 334 383 384
3 334 384 334
3 334 384 385
3 334 385 334
3 334 385 386
3 334 386 334
3 334 386 386
3 334 386 335
3 335 386 387
3 335 387 335
3 335 387 388
3 335 388 335
3 335 388 389
3 335 389 335
3 335 389 389
3 335 389 336
3 336 389 390
3 336 390 336
3 336 390 391
3 336 391 336
3 336 391 391
3 336 391 337
3 337 391 392
3 337 392 337
3 337 392 393
3 337 393 337
3 337 393 394
3 337 394 337
3 337 394 394
3 337 394 338
3 338 394 395
3 338 395 338
3 338 395 396
3 338 396 338
3 338 396 397
3 338 397 338
3 338 397 397
3 338 397 339
3 339 397 397
3 339 397 306
3 306 397 398
3 306 398 306
3 306 398 398
3 306 398 306
3 398 306 306
3 413 327 315
3 340 436 436
3 340 436 341
3 341 436 437
3 341 437 341
3 341 437 438
3 341 438 341
3 341 438 438
3 341 438 342
3 342 438 439
3 342 439 342
3 342 439 439
3 342 439 343
3 343 439 440
3 343 440 343
3 343 440 440
3 343 440 344
3 344 440 441
3 344 441 344
3 344 441 441
3 344 441 345
3 345 441 442
3 345 442 345
3 345 442 442
3 345 442 346
3 346 442 443
3 346 443 346
3 346 443 443
3 346 443 347
3 347 443 444
3 347 444 347
3 347 444 444
3 347 444 348
3 348 444 445
3 348 445 348
3 348 445 445
3 348 445 349
3 349 445 446
3 349 446 349
3 349 446 446
3 349 446 350
3 350 446 447
3 350 447 350
3 350 447 447
3 350 447 351
3 351 447 448
3 351 448 351
3 351 448 448
3 351 448 352
3 352 448 449
3 352 449 352
3 352 449 449
3 352 449 353
3 353 449 450
3 353 450 353
3 353 450 450
3 353 450 354
3 354 450 451
3 354 451 354
3 354 451 451
3 354 451 355
3 355 451 452
3 355 452 355
3 355 452 452
3 355 452 356
3 356 452 453
3 356 453 356
3 356 453 453
3 356 453 357
3 357 453 454
3 357 454 357
3 357 454 454
3 357 454 358
3 358 454 455
3 358 455 358
3 358 455 456
3 358 456 358
3 358 456 456
3 358 456 359
3 359 456 457
3 359 457 359
3 359 457 457
3 359 457 360
3 360 457 458
3 360 458 360
3 360 458 458
3 360 458 361
3 361 458 459
3 361 459 361
3 361 459 459
3 361 459 362
3 362 459 460
3 362 460 362
3 362 460 460
3 362 460 363
3 363 460 461
3 363 461 363
3 363 461 461
3 363 461 364
3 364 461 462
3 364 462 364
3 364 462 462
3 364 462 365
3 365 462 463
3 365 463 365
3 365 463 463
3 365 463 366
3 366 463 464
3 366 464 366
3 366 464 464
3 366 464 367
3 367 464 465
3 367 465 367
3 367 465 465
3 367 465 368
3 368 465 466
3 368 466 368
3 368 466 466
3 368 466 369
3 369 466 467
3 369 467 369
3 369 467 467
3 369 467 370
3 370 467 468
3 370 468 370
3 370 468 468
3 370 468 371
3 371 468 469
3 371 469 371
3 371 469 469
3 371 469 372
3 372 469 470
3 372 470 372
3 372 470 470
3 372 470 373
3 373 470 470
3 373 470 340
3 340 470 471
3 340 471 340
3 340 471 436
3 340 436 340
3 340 436 436
3 340 436 340
3 436 472 472
3 436 472 437
3 437 472 473
3 437 473 437
3 437 473 473
3 437 473 438
3 438 473 474
3 438 474 438
3 438 474 474
3 438 474 439
3 439 474 475
3 439 475 439
3 439 475 475
3 439 475 440
3 440 475 476
3 440 476 440
3 440 476 476
3 440 476 441
3 441 476 477
3 441 477 441
3 441 477 477
3 441 477 442
3 442 477 478
3 442 478 442
3 442 478 478
3 442 478 443
3 443 478 479
3 443 479 443
3 443 479 479
3 443 479 444
3 444 479 480
3 444 480 444
3 444 480 480
3 444 480 445
3 445 480 481
3 445 481 445
3 445 481 481
3 445 481 446
3 446 481 481
3 446 481 447
3 447 481 482
3 447 482 447
3 447 482 482
3 447 482 448
3 448 482 483
3 448 483 448
3 448 483 483
3 448 483 449
3 449 483 484
3 449 484 449
3 449 484 484
3 449 484 450
3 450 484 485
3 450 485 450
3 450 485 485
3 450 485 451
3 451 485 486
3 451 486 451
3 451 486 486
3 451 486 452
3 452 486 487
3 452 487 452
3 452 487 487
3 452 487 453
3 453 487 488
3 453 488 453
3 453 488 488
3 453 488 454
3 454 488 488
3 454 488 455
3 455 488 489
3 455 489 455
3 455 489 489
3 455 489 456
3 456 489 490
3 456 490 456
3 456 490 490
3 456 490 457
3 457 490 491
3 457 491 457
3 457 491 491
3 457 491 458
3 458 491 491
3 458 491 459
3 459 491 492
3 459 492 459
3 459 492 492
3 459 492 460
3 460 492 493
3 460 493 460
3 460 493 493
3 460 493 461
3 461 493 494
3 461 494 461
3 461 494 494
3 461 494 462
3 462 494 495
3 462 495 462
3 462 495 495
3 462 495 463
3 463 495 496
3 463 496 463
3 463 496 496
3 463 496 464
3 464 496 497
3 464 497 464
3 464 497 497
3 464 497 465
3 465 497 498
3 465 498 465
3 465 498 498
3 465 498 466
3 466 498 498
3 466 498 467
3 467 498 499
3 467 499 467
3 467 499 499
3 467 499 468
3 468 499 500
3 468 500 468
3 468 500 500
3 468 500 469
3 469 500 501
3 469 501 469
3 469 501 501
3 469 501 470
3 470 501 502
3 470 502 470
3 470 502 502
3 470 502 471
3 471 502 502
3 471 502 436
3 436 502 472
3 436 472 436
3 436 472 472
3 436 472 436
3 472 527 527
3 472 527 473
3 473 527 528
3 473 528 473
3 473 528 528
3 473 528 474
3 474 528 528
3 474 528 475
3 475 528 528
3 475 528 476
3 476 528 528
3 476 528 477
3 477 528 529
3 477 529 477
3 477 529 529
3 477 529 478
3 478 529 529
3 478 529 479
3 479 529 530
3 479 530 479
3 479 530 530
3 479 530 480
3 480 530 530
3 480 530 481
3 481 530 531
3 481 531 481
3 481 531 531
3 481 531 482
3 482 531 531
3 482 531 483
3 483 531 532
3 483 532 483
3 483 532 532
3 483 532 484
3 484 532 532
3 484 532 485
3 485 532 533
3 485 533 485
3 485 533 533
3 485 533 486
3 486 533 533
3 486 533 487
3 487 533 534
3 487 534 487
3 487 534 534
3 487 534 488
3 488 534 534
3 488 534 489
3 489 534 535
3 489 535 489
3 489 535 535
3 489 535 490
3 490 535 535
3 490 535 491
3 491 535 535
3 491 535 492
3 492 535 536
3 492 536 492
3 492 536 536
3 492 536 493
3 493 536 536
3 493 536 494
3 494 536 536
3 494 536 495
3 495 536 537
3 495 537 495
3 495 537 537
3 495 537 496
3 496 537 537
3 496 537 497
3 497 537 538
3 497 538 497
3 497 538 538
3 497 538 498
3 498 538 539
3 498 539 498
3 498 539 539
3 498 539 499
3 499 539 539
3 499 539 500
3 500 539 540
3 500 540 500
3 500 540 540
3 500 540 501
3 501 540 540
3 501 540 502
3 502 540 540
3 502 540 472
3 472 540 527
3 472 527 472
3 472 527 527
3 472 527 472
