ply
format ascii 1.0
element vertex 589
property float x
property float y
property float z
element face 2104
property list uchar int vertex_index
end_header
1.97919 -6.50466 0.126293
1.98354 -6.50466 0.190928
1.98283 -6.50466 0.283106
1.93117 -6.50466 0.472484
1.75386 -6.50466 0.671695
1.65552 -6.50466 0.72869
1.51884 -6.50466 0.779944
1.43932 -6.50466 0.79608
1.37603 -6.50466 0.807539
1.27626 -6.50466 0.814348
1.22614 -6.50466 0.81654
1.12616 -6.50466 0.814631
1.00722 -6.50466 0.805717
0.914007 -6.50466 0.794295
0.804973 -6.50466 0.77695
0.568911 -6.50466 0.729487
0.43465 -6.50466 0.704904
0.370667 -6.50466 0.698148
0.329345 -6.50466 0.697492
0.2575 -6.50466 0.704028
0.200495 -6.50466 0.717356
0.136048 -6.50466 0.738862
0.075776 -6.50466 0.763275
-0.023179 -6.50466 0.805738
-0.145653 -6.50466 0.85174
-0.25928 -6.50466 0.870584
-0.350278 -6.50466 0.838642
-0.398997 -6.50466 0.727739
-0.396745 -6.50466 0.563759
-0.353694 -6.50466 0.349173
-0.309068 -6.50466 0.164758
-0.297847 -6.50466 0.090087
-0.360206 -6.50466 -0.150381
-0.389148 -6.50466 -0.379458
-0.261996 -6.50466 -0.557662
-0.159255 -6.50466 -0.631173
-0.09764 -6.50466 -0.664774
0.016074 -6.50466 -0.718187
0.194126 -6.50466 -0.784286
0.305199 -6.50466 -0.816656
0.392166 -6.50466 -0.838166
0.489816 -6.50466 -0.858962
0.68714 -6.50466 -0.890935
0.714979 -6.50466 -0.894138
0.859461 -6.50466 -0.908009
0.963658 -6.50466 -0.914589
1.06664 -6.50466 -0.914501
1.18172 -6.50466 -0.898798
1.31718 -6.50466 -0.853826
1.48143 -6.50466 -0.760028
1.54482 -6.50466 -0.710753
1.59585 -6.50466 -0.665682
1.6688 -6.50466 -0.591538
1.73363 -6.50466 -0.513688
1.86501 -6.50466 -0.305801
1.88352 -6.50466 -0.265996
1.9335 -6.50466 -0.135389
1.9581 -6.50466 -0.03815
1.99233 -5.05477 0.137737
1.99919 -5.05477 0.282308
1.98444 -5.05477 0.391559
1.97416 -5.05477 0.424478
1.90151 -5.05477 0.562693
1.75823 -5.05477 0.694709
1.69885 -5.05477 0.727595
1.58458 -5.05477 0.774848
1.45503 -5.05477 0.806279
1.31828 -5.05477 0.821422
1.18232 -5.05477 0.823203
1.05286 -5.05477 0.815296
0.933302 -5.05477 0.801148
0.82513 -5.05477 0.783674
0.594635 -5.05477 0.737231
0.459311 -5.05477 0.712393
0.35221 -5.05477 0.704198
0.24096 -5.05477 0.719124
0.12829 -5.05477 0.757429
0.008264 -5.05477 0.808556
-0.115723 -5.05477 0.855195
-0.230402 -5.05477 0.873768
-0.359315 -5.05477 0.777004
-0.370935 -5.05477 0.647422
-0.351283 -5.05477 0.482037
-0.320319 -5.05477 0.335216
-0.293824 -5.05477 0.213929
-0.279405 -5.05477 0.115715
-0.298383 -5.05477 -0.027093
-0.353476 -5.05477 -0.148323
-0.383017 -5.05477 -0.238632
-0.38346 -5.05477 -0.338678
-0.316665 -5.05477 -0.475741
-0.189063 -5.05477 -0.58595
-0.144451 -5.05477 -0.615547
-0.081722 -5.05477 -0.647975
0.032201 -5.05477 -0.699926
0.14796 -5.05477 -0.743252
0.260557 -5.05477 -0.778485
0.366827 -5.05477 -0.806529
0.465081 -5.05477 -0.828451
0.687054 -5.05477 -0.865254
0.743556 -5.05477 -0.871761
0.867973 -5.05477 -0.883196
0.969794 -5.05477 -0.889541
1.07168 -5.05477 -0.889283
1.18622 -5.05477 -0.873707
1.32145 -5.05477 -0.829498
1.48588 -5.05477 -0.737341
1.55037 -5.05477 -0.688193
1.60192 -5.05477 -0.643464
1.6763 -5.05477 -0.569169
1.74263 -5.05477 -0.490785
1.87423 -5.05477 -0.286763
1.898 -5.05477 -0.236655
1.94635 -5.05477 -0.110994
1.97122 -5.05477 -0.01422
2.284 -3.60488 -0.038318
2.28804 -3.60488 0.037604
2.28507 -3.60488 0.128352
2.25789 -3.60488 0.250594
2.18284 -3.60488 0.387791
2.02576 -3.60488 0.530729
1.92729 -3.60488 0.583062
1.86368 -3.60488 0.606345
1.8008 -3.60488 0.627992
1.72156 -3.60488 0.643592
1.58103 -3.60488 0.661252
1.44152 -3.60488 0.665196
1.30893 -3.60488 0.659105
1.18669 -3.60488 0.646475
1.07627 -3.60488 0.630281
0.841465 -3.60488 0.586467
0.696569 -3.60488 0.560435
0.592849 -3.60488 0.554825
0.483148 -3.60488 0.571867
0.367324 -3.60488 0.612592
0.243694 -3.60488 0.666234
0.115953 -3.60488 0.715055
-0.001619 -3.60488 0.734449
-0.125002 -3.60488 0.643996
-0.137218 -3.60488 0.503992
-0.113655 -3.60488 0.335464
-0.079378 -3.60488 0.186686
-0.050511 -3.60488 0.064329
-0.034536 -3.60488 -0.034439
-0.05192 -3.60488 -0.17779
-0.105763 -3.60488 -0.299077
-0.13414 -3.60488 -0.39099
-0.132019 -3.60488 -0.491992
-0.060597 -3.60488 -0.632045
0.068281 -3.60488 -0.743186
0.119893 -3.60488 -0.777496
0.180875 -3.60488 -0.809167
0.297368 -3.60488 -0.863425
0.415773 -3.60488 -0.909117
0.531053 -3.60488 -0.946665
0.639985 -3.60488 -0.976889
0.740815 -3.60488 -1.00081
0.974522 -3.60488 -1.04273
1.02117 -3.60488 -1.04873
1.15484 -3.60488 -1.06311
1.25927 -3.60488 -1.07121
1.36295 -3.60488 -1.07278
1.47862 -3.60488 -1.0594
1.61441 -3.60488 -1.01791
1.78618 -3.60488 -0.924299
1.83706 -3.60488 -0.886024
1.8954 -3.60488 -0.837272
1.97026 -3.60488 -0.763585
2.0371 -3.60488 -0.685156
2.17251 -3.60488 -0.472522
2.18975 -3.60488 -0.434964
2.24081 -3.60488 -0.299749
2.26484 -3.60488 -0.200686
2.67025 -2.15499 -0.284471
2.67351 -2.15499 -0.207862
2.66948 -2.15499 -0.11634
2.64051 -2.15499 0.007181
2.56277 -2.15499 0.146068
2.40262 -2.15499 0.290567
2.30168 -2.15499 0.344268
2.23488 -2.15499 0.368658
2.17302 -2.15499 0.390223
2.0921 -2.15499 0.406312
1.94966 -2.15499 0.42477
1.80852 -2.15499 0.429431
1.67461 -2.15499 0.423984
1.42097 -2.15499 0.392447
1.39198 -2.15499 0.387654
1.13655 -2.15499 0.339182
1.00988 -2.15499 0.323861
0.897627 -2.15499 0.33027
0.782353 -2.15499 0.362674
0.658889 -2.15499 0.414423
0.52809 -2.15499 0.471016
0.399082 -2.15499 0.510195
0.293386 -2.15499 0.50558
0.227122 -2.15499 0.436549
0.212448 -2.15499 0.27948
0.213958 -2.15499 0.262303
0.258024 -2.15499 0.036308
0.296486 -2.15499 -0.109794
0.321963 -2.15499 -0.221096
0.331152 -2.15499 -0.310926
0.298145 -2.15499 -0.449886
0.243542 -2.15499 -0.581453
0.229993 -2.15499 -0.666227
0.253416 -2.15499 -0.780192
0.297409 -2.15499 -0.852422
0.355125 -2.15499 -0.914073
0.446851 -2.15499 -0.98456
0.556139 -2.15499 -1.04806
0.674238 -2.15499 -1.10325
0.794117 -2.15499 -1.14986
0.910746 -2.15499 -1.1883
1.02091 -2.15499 -1.21935
1.12285 -2.15499 -1.24403
1.35903 -2.15499 -1.28768
1.40635 -2.15499 -1.29404
1.5413 -2.15499 -1.30935
1.64679 -2.15499 -1.31816
1.75142 -2.15499 -1.32037
1.86793 -2.15499 -1.30762
2.00445 -2.15499 -1.26673
2.17692 -2.15499 -1.17357
2.22757 -2.15499 -1.13559
2.28608 -2.15499 -1.08682
2.36091 -2.15499 -1.01312
2.42761 -2.15499 -0.934572
2.56222 -2.15499 -0.721222
2.57919 -2.15499 -0.683613
2.6294 -2.15499 -0.547617
2.65263 -2.15499 -0.447907
3.08417 -0.705096 -0.547845
3.08769 -0.705096 -0.468041
3.0836 -0.705096 -0.378234
3.05447 -0.705096 -0.254882
2.97639 -0.705096 -0.116376
2.81865 -0.705096 0.025124
2.76432 -0.705096 0.054267
2.71481 -0.705096 0.080202
2.63983 -0.705096 0.106748
2.50424 -0.705096 0.140941
2.32558 -0.705096 0.161657
2.22316 -0.705096 0.16279
2.09016 -0.705096 0.157251
1.96641 -0.705096 0.14508
1.85483 -0.705096 0.129305
1.79993 -0.705096 0.120424
1.55004 -0.705096 0.07464
1.41935 -0.705096 0.059852
1.3063 -0.705096 0.067727
1.18971 -0.705096 0.101632
1.06436 -0.705096 0.154844
0.931359 -0.705096 0.212725
0.800331 -0.705096 0.252535
0.694 -0.705096 0.246986
0.653153 -0.705096 0.218656
0.615903 -0.705096 0.103226
0.614967 -0.705096 0.078315
0.646454 -0.705096 -0.145052
0.651288 -0.705096 -0.165333
0.704982 -0.705096 -0.365589
0.734284 -0.705096 -0.487291
0.743881 -0.705096 -0.577225
0.711252 -0.705096 -0.716109
0.657641 -0.705096 -0.848011
0.64531 -0.705096 -0.933747
0.67855 -0.705096 -1.06519
0.807666 -0.705096 -1.21296
0.916756 -0.705096 -1.28518
1.0055 -0.705096 -1.33127
1.09452 -0.705096 -1.37078
1.21409 -0.705096 -1.41675
1.33029 -0.705096 -1.45458
1.43994 -0.705096 -1.48508
1.54135 -0.705096 -1.50927
1.77333 -0.705096 -1.5515
1.8263 -0.705096 -1.55848
1.95744 -0.705096 -1.57292
2.06243 -0.705096 -1.58136
2.16687 -0.705096 -1.58312
2.28343 -0.705096 -1.56976
2.42017 -0.705096 -1.52803
2.58979 -0.705096 -1.43576
2.64645 -0.705096 -1.39312
2.70199 -0.705096 -1.34612
2.77659 -0.705096 -1.27212
2.84296 -0.705096 -1.1935
2.97533 -0.705096 -0.983656
2.99502 -0.705096 -0.940134
3.04344 -0.705096 -0.80806
3.06651 -0.705096 -0.708983
3.47769 0.744795 -0.796866
3.48223 0.744795 -0.655107
3.47009 0.744795 -0.564359
3.42153 0.744795 -0.434366
3.31112 0.744795 -0.295711
3.26143 0.744795 -0.256807
3.10949 0.744795 -0.170339
3.015 0.744795 -0.137609
2.90842 0.744795 -0.113798
2.76605 0.744795 -0.096464
2.625 0.744795 -0.092751
2.49124 0.744795 -0.098997
2.36823 0.744795 -0.111685
2.25742 0.744795 -0.127809
2.15878 0.744795 -0.144994
2.10686 0.744795 -0.154646
1.89268 0.744795 -0.19178
1.76823 0.744795 -0.196735
1.6557 0.744795 -0.175494
1.53542 0.744795 -0.130718
1.40607 0.744795 -0.073227
1.27226 0.744795 -0.02156
1.15034 0.744795 -0.002336
1.05802 0.744795 -0.045335
1.02587 0.744795 -0.157584
1.02529 0.744795 -0.185556
1.05592 0.744795 -0.403396
1.06207 0.744795 -0.429066
1.11377 0.744795 -0.623216
1.14324 0.744795 -0.747014
1.15215 0.744795 -0.836386
1.11858 0.744795 -0.97457
1.09761 0.744795 -1.02167
1.06385 0.744795 -1.11106
1.05929 0.744795 -1.24947
1.13737 0.744795 -1.39622
1.18523 0.744795 -1.44205
1.27934 0.744795 -1.5124
1.39065 0.744795 -1.57542
1.50977 0.744795 -1.62968
1.60889 0.744795 -1.66774
1.73824 0.744795 -1.70941
1.788 0.744795 -1.72394
1.84754 0.744795 -1.73868
1.947 0.744795 -1.76132
2.16998 0.744795 -1.79964
2.23112 0.744795 -1.8071
2.35504 0.744795 -1.81929
2.45819 0.744795 -1.82643
2.56139 0.744795 -1.82684
2.67721 0.744795 -1.81186
2.81357 0.744795 -1.76815
2.97795 0.744795 -1.67686
3.04429 0.744795 -1.62647
3.09497 0.744795 -1.58231
3.16922 0.744795 -1.50783
3.2352 0.744795 -1.4292
3.36465 0.744795 -1.22554
3.38903 0.744795 -1.17277
3.43534 0.744795 -1.0476
3.45888 0.744795 -0.95014
3.80883 2.19469 -1.03392
3.81809 2.19469 -0.860878
3.80526 2.19469 -0.761072
3.75604 2.19469 -0.631427
3.64525 2.19469 -0.493711
3.63273 2.19469 -0.482719
3.49968 2.19469 -0.397288
3.37761 2.19469 -0.348013
3.24395 2.19469 -0.316672
3.10355 2.19469 -0.301646
2.96464 2.19469 -0.299953
2.83303 2.19469 -0.307877
2.71208 2.19469 -0.321911
2.60314 2.19469 -0.339094
2.50617 2.19469 -0.357109
2.45255 2.19469 -0.367681
2.24677 2.19469 -0.40546
2.12194 2.19469 -0.411708
2.01193 2.19469 -0.39169
1.8942 2.19469 -0.34867
1.76744 2.19469 -0.293168
1.63615 2.19469 -0.243497
1.51613 2.19469 -0.225847
1.4491 2.19469 -0.248837
1.39549 2.19469 -0.350838
1.40182 2.19469 -0.539275
1.40776 2.19469 -0.57292
1.45456 2.19469 -0.773888
1.48915 2.19469 -0.911639
1.50541 2.19469 -1.00991
1.50539 2.19469 -1.07572
1.45558 2.19469 -1.22324
1.43005 2.19469 -1.28251
1.40506 2.19469 -1.37836
1.43288 2.19469 -1.52753
1.56218 2.19469 -1.67809
1.62537 2.19469 -1.71989
1.7354 2.19469 -1.78124
1.85316 2.19469 -1.83371
1.9715 2.19469 -1.8773
2.08568 2.19469 -1.91268
2.19283 2.19469 -1.94085
2.29153 2.19469 -1.96292
2.33866 2.19469 -1.97257
2.57508 2.19469 -2.00773
2.69612 2.19469 -2.01931
2.7983 2.19469 -2.02615
2.85915 2.19469 -2.02705
2.95375 2.19469 -2.01925
3.07826 2.19469 -1.98928
3.22494 2.19469 -1.92284
3.38631 2.19469 -1.8097
3.42938 2.19469 -1.77025
3.50306 2.19469 -1.6951
3.56844 2.19469 -1.61639
3.69318 2.19469 -1.42174
3.74953 2.19469 -1.2941
3.78174 2.19469 -1.18992
4.01617 3.64458 -1.04633
4.01935 3.64458 -0.988283
4.01323 3.64458 -0.883846
3.96386 3.64458 -0.734702
3.85484 3.64458 -0.596625
3.83711 3.64458 -0.582511
3.75701 3.64458 -0.527011
3.65012 3.64458 -0.476721
3.47599 3.64458 -0.432347
3.32579 3.64458 -0.418032
3.19023 3.64458 -0.418919
3.06184 3.64458 -0.428996
2.94383 3.64458 -0.444783
2.83747 3.64458 -0.463391
2.77728 3.64458 -0.475267
2.55336 3.64458 -0.522866
2.42065 3.64458 -0.541645
2.3141 3.64458 -0.536273
2.20434 3.64458 -0.506498
2.08584 3.64458 -0.458377
1.95985 3.64458 -0.40593
1.83515 3.64458 -0.370998
1.7323 3.64458 -0.379397
1.69413 3.64458 -0.406279
1.65199 3.64458 -0.522034
1.65038 3.64458 -0.548242
1.67259 3.64458 -0.760108
1.67796 3.64458 -0.786439
1.72115 3.64458 -0.972616
1.746 3.64458 -1.09426
1.75202 3.64458 -1.16629
1.71712 3.64458 -1.31135
1.6911 3.64458 -1.36739
1.64276 3.64458 -1.54911
1.67285 3.64458 -1.65875
1.68445 3.64458 -1.67956
1.88456 3.64458 -1.85811
1.96419 3.64458 -1.89872
2.07972 3.64458 -1.94881
2.19583 3.64458 -1.98998
2.30772 3.64458 -2.02298
2.41254 3.64458 -2.04889
2.50891 3.64458 -2.06888
2.56184 3.64458 -2.07855
2.77831 3.64458 -2.10726
2.90297 3.64458 -2.11727
3.00214 3.64458 -2.1222
3.10278 3.64458 -2.12008
3.2174 3.64458 -2.10189
3.35357 3.64458 -2.05402
3.51038 3.64458 -1.96278
3.52487 3.64458 -1.9517
3.59795 3.64458 -1.89326
3.67374 3.64458 -1.82111
3.74238 3.64458 -1.74369
3.89264 3.64458 -1.51569
3.95142 3.64458 -1.38185
3.98233 3.64458 -1.27931
3.99674 3.64458 -1.21066
4.03479 5.09447 -1.09508
4.0406 5.09447 -1.04003
4.0432 5.09447 -0.862129
4.01845 5.09447 -0.758419
3.9457 5.09447 -0.628108
3.92924 5.09447 -0.609806
3.71038 5.09447 -0.457126
3.62577 5.09447 -0.429777
3.49746 5.09447 -0.403854
3.36305 5.09447 -0.393816
3.23045 5.09447 -0.396404
3.10497 5.09447 -0.407846
2.98958 5.09447 -0.424723
2.88545 5.09447 -0.444228
2.82783 5.09447 -0.45627
2.60486 5.09447 -0.506515
2.47565 5.09447 -0.526513
2.37105 5.09447 -0.522908
2.26348 5.09447 -0.495175
2.14778 5.09447 -0.449214
2.0252 5.09447 -0.398837
1.9041 5.09447 -0.365004
1.80305 5.09447 -0.371563
1.73174 5.09447 -0.447092
1.7149 5.09447 -0.591876
1.73588 5.09447 -0.758571
1.76798 5.09447 -0.90662
1.79498 5.09447 -1.02844
1.80897 5.09447 -1.12648
1.80788 5.09447 -1.19274
1.75564 5.09447 -1.34028
1.72903 5.09447 -1.40008
1.70266 5.09447 -1.49452
1.72505 5.09447 -1.63778
1.84685 5.09447 -1.78378
1.90927 5.09447 -1.8247
2.01643 5.09447 -1.88285
2.13151 5.09447 -1.93185
2.24712 5.09447 -1.97179
2.35833 5.09447 -2.00348
2.46223 5.09447 -2.02806
2.55747 5.09447 -2.04676
2.61731 5.09447 -2.05677
2.81505 5.09447 -2.08084
2.94491 5.09447 -2.08998
3.04187 5.09447 -2.09366
3.14074 5.09447 -2.09004
3.25419 5.09447 -2.06995
3.38961 5.09447 -2.01957
3.41446 5.09447 -2.00651
3.61413 5.09447 -1.87009
3.67178 5.09447 -1.81603
3.74426 5.09447 -1.73832
3.80786 5.09447 -1.65811
3.84569 5.09447 -1.60364
3.95044 5.09447 -1.41381
3.95818 5.09447 -1.39534
4.00268 5.09447 -1.26653
3.84082 6.54436 -0.893316
3.84388 6.54436 -0.835038
3.83675 6.54436 -0.650684
3.80491 6.54436 -0.541163
3.72187 6.54436 -0.403895
3.70238 6.54436 -0.383771
3.64099 6.54436 -0.326033
3.54952 6.54436 -0.26394
3.44247 6.54436 -0.213587
3.31416 6.54436 -0.175851
3.13008 6.54436 -0.1521
2.97575 6.54436 -0.150722
2.84922 6.54436 -0.159761
2.73297 6.54436 -0.174513
2.62796 6.54436 -0.19223
2.53405 6.54436 -0.210757
2.48829 6.54436 -0.2203
2.2739 6.54436 -0.262594
2.15691 6.54436 -0.269966
2.02714 6.54436 -0.244581
1.90141 6.54436 -0.190083
1.74418 6.54436 -0.112927
1.68572 6.54436 -0.085457
1.51707 6.54436 -0.022263
1.47913 6.54436 -0.016138
1.35753 6.54436 -0.052238
1.34193 6.54436 -0.189727
1.35372 6.54436 -0.247953
1.42564 6.54436 -0.473705
1.45874 6.54436 -0.555487
1.5324 6.54436 -0.775327
1.55164 6.54436 -0.874605
1.53887 6.54436 -1.02334
1.48888 6.54436 -1.14827
1.47047 6.54436 -1.20771
1.46852 6.54436 -1.34239
1.54768 6.54436 -1.49031
1.5666 6.54436 -1.50931
1.64977 6.54436 -1.57895
1.75468 6.54436 -1.64358
1.87078 6.54436 -1.69986
1.99029 6.54436 -1.7473
2.10747 6.54436 -1.78617
2.21856 6.54436 -1.81728
2.32147 6.54436 -1.8417
2.57024 6.54436 -1.88491
2.59359 6.54436 -1.88777
2.75849 6.54436 -1.90423
2.87376 6.54436 -1.91136
2.97507 6.54436 -1.90958
3.09035 6.54436 -1.891
3.22665 6.54436 -1.8415
3.25203 6.54436 -1.82809
3.44884 6.54436 -1.69145
3.50598 6.54436 -1.63585
3.57645 6.54436 -1.55654
3.63763 6.54436 -1.47443
3.6741 6.54436 -1.41779
3.77097 6.54436 -1.22398
3.77846 6.54436 -1.20343
3.8171 6.54436 -1.07083
3 27 89 90
3 27 90 28
3 28 90 90
3 28 90 29
3 29 90 91
3 29 91 29
3 29 91 91
3 29 91 30
3 30 91 92
3 30 92 30
3 30 92 92
3 30 92 31
3 31 92 93
3 31 93 31
3 31 93 93
3 31 93 32
3 32 93 94
3 32 94 32
3 32 94 94
3 32 94 33
3 33 94 95
3 33 95 33
3 33 95 95
3 33 95 34
3 34 95 96
3 34 96 34
3 34 96 96
3 34 96 35
3 35 96 97
3 35 97 35
3 35 97 97
3 35 97 36
3 36 97 98
3 36 98 36
3 36 98 98
3 36 98 37
3 37 98 99
3 37 99 37
3 37 99 99
3 37 99 38
3 38 99 100
3 38 100 38
3 38 100 100
3 38 100 39
3 39 100 101
3 39 101 39
3 39 101 101
3 39 101 40
3 40 101 102
3 40 102 40
3 40 102 102
3 40 102 41
3 41 102 103
3 41 103 41
3 41 103 103
3 41 103 42
3 42 103 104
3 42 104 42
3 42 104 104
3 42 104 43
3 43 104 105
3 43 105 43
3 43 105 105
3 43 105 44
3 44 105 106
3 44 106 44
3 44 106 106
3 44 106 45
3 45 106 107
3 45 107 45
3 45 107 107
3 45 107 46
3 46 107 108
3 46 108 46
3 46 108 108
3 46 108 47
3 47 108 109
3 47 109 47
3 47 109 109
3 47 109 48
3 48 109 110
3 48 110 48
3 48 110 110
3 48 110 49
3 49 110 110
3 49 110 50
3 50 110 111
3 50 111 50
3 50 111 111
3 50 111 51
3 51 111 112
3 51 112 51
3 51 112 112
3 51 112 52
3 52 112 113
3 52 113 52
3 52 113 113
3 52 113 53
3 53 113 114
3 53 114 53
3 53 114 114
3 53 114 54
3 54 114 114
3 54 114 55
3 55 114 58
3 55 58 55
3 55 58 58
3 55 58 56
3 56 58 59
3 56 59 56
3 56 59 59
3 56 59 57
3 57 59 60
3 57 60 57
3 57 60 60
3 57 60 0
3 0 60 61
3 0 61 0
3 0 61 61
3 0 61 1
3 1 61 62
3 1 62 1
3 1 62 62
3 1 62 2
3 2 62 63
3 2 63 2
3 2 63 63
3 2 63 3
3 3 63 64
3 3 64 3
3 3 64 64
3 3 64 4
3 4 64 65
3 4 65 4
3 4 65 65
3 4 65 5
3 5 65 66
3 5 66 5
3 5 66 66
3 5 66 6
3 6 66 67
3 6 67 6
3 6 67 67
3 6 67 7
3 7 67 68
3 7 68 7
3 7 68 68
3 7 68 8
3 8 68 69
3 8 69 8
3 8 69 69
3 8 69 9
3 9 69 69
3 9 69 10
3 10 69 70
3 10 70 10
3 10 70 70
3 10 70 11
3 11 70 71
3 11 71 11
3 11 71 71
3 11 71 12
3 12 71 72
3 12 72 12
3 12 72 72
3 12 72 13
3 13 72 73
3 13 73 13
3 13 73 73
3 13 73 14
3 14 73 74
3 14 74 14
3 14 74 74
3 14 74 15
3 15 74 75
3 15 75 15
3 15 75 75
3 15 75 16
3 16 75 76
3 16 76 16
3 16 76 76
3 16 76 17
3 17 76 77
3 17 77 17
3 17 77 77
3 17 77 18
3 18 77 78
3 18 78 18
3 18 78 78
3 18 78 19
3 19 78 79
3 19 79 19
3 19 79 79
3 19 79 20
3 20 79 80
3 20 80 20
3 20 80 80
3 20 80 21
3 21 80 81
3 21 81 21
3 21 81 81
3 21 81 22
3 22 81 82
3 22 82 22
3 22 82 82
3 22 82 23
3 23 82 83
3 23 83 23
3 23 83 83
3 23 83 24
3 24 83 84
3 24 84 24
3 24 84 84
3 24 84 25
3 25 84 85
3 25 85 25
3 25 85 85
3 25 85 26
3 26 85 86
3 26 86 26
3 26 86 86
3 26 86 27
3 27 86 86
3 27 86 27
3 27 86 87
3 27 87 27
3 27 87 88
3 27 88 27
3 27 88 89
3 27 89 27
3 27 89 90
3 27 90 27
3 27 90 89
3 27 89 27
3 89 139 140
3 89 140 90
3 90 140 141
3 90 141 90
3 90 141 141
3 90 141 91
3 91 141 142
3 91 142 91
3 91 142 142
3 91 142 92
3 92 142 143
3 92 143 92
3 92 143 143
3 92 143 93
3 93 143 144
3 93 144 93
3 93 144 144
3 93 144 94
3 94 144 145
3 94 145 94
3 94 145 145
3 94 145 95
3 95 145 146
3 95 146 95
3 95 146 146
3 95 146 96
3 96 146 147
3 96 147 96
3 96 147 147
3 96 147 97
3 97 147 148
3 97 148 97
3 97 148 148
3 97 148 98
3 98 148 149
3 98 149 98
3 98 149 149
3 98 149 99
3 99 149 150
3 99 150 99
3 99 150 150
3 99 150 100
3 100 150 151
3 100 151 100
3 100 151 151
3 100 151 101
3 101 151 152
3 101 152 101
3 101 152 152
3 101 152 102
3 102 152 153
3 102 153 102
3 102 153 153
3 102 153 103
3 103 153 154
3 103 154 103
3 103 154 154
3 103 154 104
3 104 154 155
3 104 155 104
3 104 155 155
3 104 155 105
3 105 155 156
3 105 156 105
3 105 156 156
3 105 156 106
3 106 156 157
3 106 157 106
3 106 157 157
3 106 157 107
3 107 157 158
3 107 158 107
3 107 158 158
3 107 158 108
3 108 158 159
3 108 159 108
3 108 159 159
3 108 159 109
3 109 159 160
3 109 160 109
3 109 160 160
3 109 160 110
3 110 160 161
3 110 161 110
3 110 161 161
3 110 161 111
3 111 161 162
3 111 162 111
3 111 162 163
3 111 163 111
3 111 163 163
3 111 163 112
3 112 163 164
3 112 164 112
3 112 164 164
3 112 164 113
3 113 164 165
3 113 165 113
3 113 165 165
3 113 165 114
3 114 165 166
3 114 166 114
3 114 166 167
3 114 167 114
3 114 167 167
3 114 167 58
3 58 167 168
3 58 168 58
3 58 168 168
3 58 168 59
3 59 168 169
3 59 169 59
3 59 169 170
3 59 170 59
3 59 170 170
3 59 170 60
3 60 170 171
3 60 171 60
3 60 171 171
3 60 171 61
3 61 171 172
3 61 172 61
3 61 172 172
3 61 172 62
3 62 172 115
3 62 115 62
3 62 115 115
3 62 115 63
3 63 115 116
3 63 116 63
3 63 116 117
3 63 117 63
3 63 117 117
3 63 117 64
3 64 117 118
3 64 118 64
3 64 118 118
3 64 118 65
3 65 118 119
3 65 119 65
3 65 119 119
3 65 119 66
3 66 119 120
3 66 120 66
3 66 120 120
3 66 120 67
3 67 120 121
3 67 121 67
3 67 121 121
3 67 121 68
3 68 121 122
3 68 122 68
3 68 122 123
3 68 123 68
3 68 123 123
3 68 123 69
3 69 123 124
3 69 124 69
3 69 124 124
3 69 124 70
3 70 124 125
3 70 125 70
3 70 125 125
3 70 125 71
3 71 125 126
3 71 126 71
3 71 126 126
3 71 126 72
3 72 126 127
3 72 127 72
3 72 127 128
3 72 128 72
3 72 128 128
3 72 128 73
3 73 128 129
3 73 129 73
3 73 129 129
3 73 129 74
3 74 129 130
3 74 130 74
3 74 130 130
3 74 130 75
3 75 130 131
3 75 131 75
3 75 131 132
3 75 132 75
3 75 132 132
3 75 132 76
3 76 132 133
3 76 133 76
3 76 133 133
3 76 133 77
3 77 133 134
3 77 134 77
3 77 134 134
3 77 134 78
3 78 134 135
3 78 135 78
3 78 135 135
3 78 135 79
3 79 135 136
3 79 136 79
3 79 136 136
3 79 136 80
3 80 136 137
3 80 137 80
3 80 137 137
3 80 137 81
3 81 137 138
3 81 138 81
3 81 138 138
3 81 138 82
3 82 138 139
3 82 139 82
3 82 139 139
3 82 139 83
3 83 139 139
3 83 139 83
3 83 139 139
3 83 139 84
3 84 139 139
3 84 139 85
3 85 139 139
3 85 139 86
3 86 139 139
3 86 139 87
3 87 139 139
3 87 139 88
3 88 139 139
3 88 139 89
3 89 139 140
3 89 140 89
3 89 140 139
3 89 139 89
3 139 197 198
3 139 198 140
3 140 198 198
3 140 198 141
3 141 198 199
3 141 199 141
3 141 199 199
3 141 199 142
3 142 199 200
3 142 200 142
3 142 200 200
3 142 200 143
3 143 200 201
3 143 201 143
3 143 201 201
3 143 201 144
3 144 201 202
3 144 202 144
3 144 202 202
3 144 202 145
3 145 202 203
3 145 203 145
3 145 203 203
3 145 203 146
3 146 203 204
3 146 204 146
3 146 204 204
3 146 204 147
3 147 204 205
3 147 205 147
3 147 205 205
3 147 205 148
3 148 205 206
3 148 206 148
3 148 206 206
3 148 206 149
3 149 206 207
3 149 207 149
3 149 207 207
3 149 207 150
3 150 207 208
3 150 208 150
3 150 208 208
3 150 208 151
3 151 208 209
3 151 209 151
3 151 209 209
3 151 209 152
3 152 209 210
3 152 210 152
3 152 210 210
3 152 210 153
3 153 210 211
3 153 211 153
3 153 211 211
3 153 211 154
3 154 211 212
3 154 212 154
3 154 212 212
3 154 212 155
3 155 212 213
3 155 213 155
3 155 213 213
3 155 213 156
3 156 213 214
3 156 214 156
3 156 214 214
3 156 214 157
3 157 214 215
3 157 215 157
3 157 215 215
3 157 215 158
3 158 215 216
3 158 216 158
3 158 216 216
3 158 216 159
3 159 216 217
3 159 217 159
3 159 217 217
3 159 217 160
3 160 217 218
3 160 218 160
3 160 218 218
3 160 218 161
3 161 218 219
3 161 219 161
3 161 219 219
3 161 219 162
3 162 219 220
3 162 220 162
3 162 220 220
3 162 220 163
3 163 220 221
3 163 221 163
3 163 221 221
3 163 221 164
3 164 221 222
3 164 222 164
3 164 222 222
3 164 222 165
3 165 222 223
3 165 223 165
3 165 223 223
3 165 223 166
3 166 223 224
3 166 224 166
3 166 224 224
3 166 224 167
3 167 224 225
3 167 225 167
3 167 225 225
3 167 225 168
3 168 225 226
3 168 226 168
3 168 226 226
3 168 226 169
3 169 226 227
3 169 227 169
3 169 227 227
3 169 227 170
3 170 227 228
3 170 228 170
3 170 228 228
3 170 228 171
3 171 228 229
3 171 229 171
3 171 229 229
3 171 229 172
3 172 229 230
3 172 230 172
3 172 230 230
3 172 230 115
3 115 230 231
3 115 231 115
3 115 231 231
3 115 231 116
3 116 231 173
3 116 173 116
3 116 173 173
3 116 173 117
3 117 173 174
3 117 174 117
3 117 174 174
3 117 174 118
3 118 174 175
3 118 175 118
3 118 175 175
3 118 175 119
3 119 175 176
3 119 176 119
3 119 176 177
3 119 177 119
3 119 177 177
3 119 177 120
3 120 177 178
3 120 178 120
3 120 178 178
3 120 178 121
3 121 178 179
3 121 179 121
3 121 179 179
3 121 179 122
3 122 179 180
3 122 180 122
3 122 180 180
3 122 180 123
3 123 180 181
3 123 181 123
3 123 181 181
3 123 181 124
3 124 181 182
3 124 182 124
3 124 182 182
3 124 182 125
3 125 182 183
3 125 183 125
3 125 183 183
3 125 183 126
3 126 183 184
3 126 184 126
3 126 184 184
3 126 184 127
3 127 184 185
3 127 185 127
3 127 185 185
3 127 185 128
3 128 185 186
3 128 186 128
3 128 186 186
3 128 186 129
3 129 186 187
3 129 187 129
3 129 187 187
3 129 187 130
3 130 187 188
3 130 188 130
3 130 188 188
3 130 188 131
3 131 188 189
3 131 189 131
3 131 189 189
3 131 189 132
3 132 189 190
3 132 190 132
3 132 190 190
3 132 190 133
3 133 190 191
3 133 191 133
3 133 191 191
3 133 191 134
3 134 191 192
3 134 192 134
3 134 192 192
3 134 192 135
3 135 192 193
3 135 193 135
3 135 193 193
3 135 193 136
3 136 193 194
3 136 194 136
3 136 194 194
3 136 194 137
3 137 194 195
3 137 195 137
3 137 195 195
3 137 195 138
3 138 195 196
3 138 196 138
3 138 196 196
3 138 196 139
3 139 196 197
3 139 197 139
3 139 197 197
3 139 197 139
3 139 197 198
3 139 198 139
3 139 198 197
3 139 197 139
3 197 258 259
3 197 259 198
3 198 259 259
3 198 259 199
3 199 259 260
3 199 260 199
3 199 260 260
3 199 260 200
3 200 260 261
3 200 261 200
3 200 261 261
3 200 261 201
3 201 261 262
3 201 262 201
3 201 262 262
3 201 262 202
3 202 262 263
3 202 263 202
3 202 263 263
3 202 263 203
3 203 263 264
3 203 264 203
3 203 264 264
3 203 264 204
3 204 264 265
3 204 265 204
3 204 265 265
3 204 265 205
3 205 265 266
3 205 266 205
3 205 266 266
3 205 266 206
3 206 266 267
3 206 267 206
3 206 267 267
3 206 267 207
3 207 267 268
3 207 268 207
3 207 268 268
3 207 268 208
3 208 268 269
3 208 269 208
3 208 269 269
3 208 269 209
3 209 269 270
3 209 270 209
3 209 270 270
3 209 270 210
3 210 270 271
3 210 271 210
3 210 271 271
3 210 271 211
3 211 271 272
3 211 272 211
3 211 272 272
3 211 272 212
3 212 272 273
3 212 273 212
3 212 273 273
3 212 273 213
3 213 273 274
3 213 274 213
3 213 274 274
3 213 274 214
3 214 274 275
3 214 275 214
3 214 275 275
3 214 275 215
3 215 275 276
3 215 276 215
3 215 276 276
3 215 276 216
3 216 276 277
3 216 277 216
3 216 277 277
3 216 277 217
3 217 277 278
3 217 278 217
3 217 278 278
3 217 278 218
3 218 278 279
3 218 279 218
3 218 279 279
3 218 279 219
3 219 279 280
3 219 280 219
3 219 280 280
3 219 280 220
3 220 280 281
3 220 281 220
3 220 281 281
3 220 281 221
3 221 281 282
3 221 282 221
3 221 282 282
3 221 282 222
3 222 282 283
3 222 283 222
3 222 283 283
3 222 283 223
3 223 283 284
3 223 284 223
3 223 284 284
3 223 284 224
3 224 284 285
3 224 285 224
3 224 285 285
3 224 285 225
3 225 285 286
3 225 286 225
3 225 286 286
3 225 286 226
3 226 286 287
3 226 287 226
3 226 287 287
3 226 287 227
3 227 287 288
3 227 288 227
3 227 288 288
3 227 288 228
3 228 288 289
3 228 289 228
3 228 289 289
3 228 289 229
3 229 289 290
3 229 290 229
3 229 290 290
3 229 290 230
3 230 290 291
3 230 291 230
3 230 291 291
3 230 291 231
3 231 291 232
3 231 232 231
3 231 232 232
3 231 232 173
3 173 232 233
3 173 233 173
3 173 233 233
3 173 233 174
3 174 233 234
3 174 234 174
3 174 234 234
3 174 234 175
3 175 234 235
3 175 235 175
3 175 235 235
3 175 235 176
3 176 235 236
3 176 236 176
3 176 236 236
3 176 236 177
3 177 236 237
3 177 237 177
3 177 237 237
3 177 237 178
3 178 237 238
3 178 238 178
3 178 238 238
3 178 238 179
3 179 238 239
3 179 239 179
3 179 239 239
3 179 239 180
3 180 239 240
3 180 240 180
3 180 240 240
3 180 240 181
3 181 240 241
3 181 241 181
3 181 241 241
3 181 241 182
3 182 241 242
3 182 242 182
3 182 242 242
3 182 242 183
3 183 242 243
3 183 243 183
3 183 243 243
3 183 243 184
3 184 243 244
3 184 244 184
3 184 244 244
3 184 244 185
3 185 244 245
3 185 245 185
3 185 245 245
3 185 245 186
3 186 245 246
3 186 246 186
3 186 246 246
3 186 246 187
3 187 246 247
3 187 247 187
3 187 247 247
3 187 247 188
3 188 247 248
3 188 248 188
3 188 248 248
3 188 248 189
3 189 248 249
3 189 249 189
3 189 249 249
3 189 249 190
3 190 249 250
3 190 250 190
3 190 250 251
3 190 251 190
3 190 251 251
3 190 251 191
3 191 251 252
3 191 252 191
3 191 252 252
3 191 252 192
3 192 252 253
3 192 253 192
3 192 253 253
3 192 253 193
3 193 253 254
3 193 254 193
3 193 254 254
3 193 254 194
3 194 254 255
3 194 255 194
3 194 255 255
3 194 255 195
3 195 255 256
3 195 256 195
3 195 256 256
3 195 256 196
3 196 256 257
3 196 257 196
3 196 257 257
3 196 257 197
3 197 257 258
3 197 258 197
3 197 258 258
3 197 258 197
3 197 258 259
3 197 259 197
3 197 259 258
3 197 258 197
3 258 317 318
3 258 318 259
3 259 318 318
3 259 318 260
3 260 318 319
3 260 319 260
3 260 319 319
3 260 319 261
3 261 319 320
3 261 320 261
3 261 320 320
3 261 320 262
3 262 320 321
3 262 321 262
3 262 321 321
3 262 321 263
3 263 321 322
3 263 322 263
3 263 322 322
3 263 322 264
3 264 322 323
3 264 323 264
3 264 323 323
3 264 323 265
3 265 323 324
3 265 324 265
3 265 324 324
3 265 324 266
3 266 324 325
3 266 325 266
3 266 325 325
3 266 325 267
3 267 325 326
3 267 326 267
3 267 326 326
3 267 326 268
3 268 326 327
3 268 327 268
3 268 327 327
3 268 327 269
3 269 327 328
3 269 328 269
3 269 328 328
3 269 328 270
3 270 328 329
3 270 329 270
3 270 329 329
3 270 329 271
3 271 329 330
3 271 330 271
3 271 330 330
3 271 330 272
3 272 330 331
3 272 331 272
3 272 331 331
3 272 331 273
3 273 331 332
3 273 332 273
3 273 332 332
3 273 332 274
3 274 332 333
3 274 333 274
3 274 333 333
3 274 333 275
3 275 333 334
3 275 334 275
3 275 334 334
3 275 334 276
3 276 334 335
3 276 335 276
3 276 335 335
3 276 335 277
3 277 335 336
3 277 336 277
3 277 336 336
3 277 336 278
3 278 336 337
3 278 337 278
3 278 337 337
3 278 337 279
3 279 337 338
3 279 338 279
3 279 338 338
3 279 338 280
3 280 338 339
3 280 339 280
3 280 339 339
3 280 339 281
3 281 339 340
3 281 340 281
3 281 340 340
3 281 340 282
3 282 340 341
3 282 341 282
3 282 341 341
3 282 341 283
3 283 341 342
3 283 342 283
3 283 342 342
3 283 342 284
3 284 342 343
3 284 343 284
3 284 343 343
3 284 343 285
3 285 343 344
3 285 344 285
3 285 344 344
3 285 344 286
3 286 344 345
3 286 345 286
3 286 345 345
3 286 345 287
3 287 345 346
3 287 346 287
3 287 346 346
3 287 346 288
3 288 346 347
3 288 347 288
3 288 347 347
3 288 347 289
3 289 347 348
3 289 348 289
3 289 348 348
3 289 348 290
3 290 348 349
3 290 349 290
3 290 349 349
3 290 349 291
3 291 349 350
3 291 350 291
3 291 350 350
3 291 350 232
3 232 350 351
3 232 351 232
3 232 351 351
3 232 351 233
3 233 351 352
3 233 352 233
3 233 352 352
3 233 352 234
3 234 352 292
3 234 292 234
3 234 292 293
3 234 293 234
3 234 293 293
3 234 293 235
3 235 293 294
3 235 294 235
3 235 294 294
3 235 294 236
3 236 294 295
3 236 295 236
3 236 295 295
3 236 295 237
3 237 295 296
3 237 296 237
3 237 296 296
3 237 296 238
3 238 296 297
3 238 297 238
3 238 297 297
3 238 297 239
3 239 297 298
3 239 298 239
3 239 298 298
3 239 298 240
3 240 298 299
3 240 299 240
3 240 299 299
3 240 299 241
3 241 299 300
3 241 300 241
3 241 300 300
3 241 300 242
3 242 300 301
3 242 301 242
3 242 301 301
3 242 301 243
3 243 301 302
3 243 302 243
3 243 302 302
3 243 302 244
3 244 302 303
3 244 303 244
3 244 303 303
3 244 303 245
3 245 303 304
3 245 304 245
3 245 304 304
3 245 304 246
3 246 304 305
3 246 305 246
3 246 305 305
3 246 305 247
3 247 305 306
3 247 306 247
3 247 306 306
3 247 306 248
3 248 306 307
3 248 307 248
3 248 307 307
3 248 307 249
3 249 307 308
3 249 308 249
3 249 308 308
3 249 308 250
3 250 308 309
3 250 309 250
3 250 309 309
3 250 309 251
3 251 309 310
3 251 310 251
3 251 310 310
3 251 310 252
3 252 310 311
3 252 311 252
3 252 311 312
3 252 312 252
3 252 312 312
3 252 312 253
3 253 312 313
3 253 313 253
3 253 313 313
3 253 313 254
3 254 313 314
3 254 314 254
3 254 314 314
3 254 314 255
3 255 314 315
3 255 315 255
3 255 315 315
3 255 315 256
3 256 315 316
3 256 316 256
3 256 316 316
3 256 316 257
3 257 316 317
3 257 317 257
3 257 317 317
3 257 317 258
3 258 317 317
3 258 317 258
3 258 317 318
3 258 318 258
3 258 318 317
3 258 317 258
3 317 377 378
3 317 378 318
3 318 378 378
3 318 378 319
3 319 378 379
3 319 379 319
3 319 379 379
3 319 379 320
3 320 379 380
3 320 380 320
3 320 380 380
3 320 380 321
3 321 380 381
3 321 381 321
3 321 381 381
3 321 381 322
3 322 381 382
3 322 382 322
3 322 382 382
3 322 382 323
3 323 382 383
3 323 383 323
3 323 383 383
3 323 383 324
3 324 383 384
3 324 384 324
3 324 384 384
3 324 384 325
3 325 384 385
3 325 385 325
3 325 385 385
3 325 385 326
3 326 385 386
3 326 386 326
3 326 386 386
3 326 386 327
3 327 386 387
3 327 387 327
3 327 387 387
3 327 387 328
3 328 387 388
3 328 388 328
3 328 388 388
3 328 388 329
3 329 388 389
3 329 389 329
3 329 389 389
3 329 389 330
3 330 389 390
3 330 390 330
3 330 390 390
3 330 390 331
3 331 390 391
3 331 391 331
3 331 391 391
3 331 391 332
3 332 391 392
3 332 392 332
3 332 392 392
3 332 392 333
3 333 392 393
3 333 393 333
3 333 393 393
3 333 393 334
3 334 393 394
3 334 394 334
3 334 394 394
3 334 394 335
3 335 394 395
3 335 395 335
3 335 395 395
3 335 395 336
3 336 395 396
3 336 396 336
3 336 396 396
3 336 396 337
3 337 396 397
3 337 397 337
3 337 397 397
3 337 397 338
3 338 397 398
3 338 398 338
3 338 398 398
3 338 398 339
3 339 398 399
3 339 399 339
3 339 399 399
3 339 399 340
3 340 399 400
3 340 400 340
3 340 400 400
3 340 400 341
3 341 400 401
3 341 401 341
3 341 401 401
3 341 401 342
3 342 401 402
3 342 402 342
3 342 402 402
3 342 402 343
3 343 402 403
3 343 403 343
3 343 403 403
3 343 403 344
3 344 403 404
3 344 404 344
3 344 404 404
3 344 404 345
3 345 404 405
3 345 405 345
3 345 405 405
3 345 405 346
3 346 405 406
3 346 406 346
3 346 406 406
3 346 406 347
3 347 406 407
3 347 407 347
3 347 407 407
3 347 407 348
3 348 407 408
3 348 408 348
3 348 408 408
3 348 408 349
3 349 408 409
3 349 409 349
3 349 409 409
3 349 409 350
3 350 409 410
3 350 410 350
3 350 410 410
3 350 410 351
3 351 410 353
3 351 353 351
3 351 353 353
3 351 353 352
3 352 353 354
3 352 354 352
3 352 354 354
3 352 354 292
3 292 354 355
3 292 355 292
3 292 355 355
3 292 355 293
3 293 355 356
3 293 356 293
3 293 356 356
3 293 356 294
3 294 356 357
3 294 357 294
3 294 357 357
3 294 357 295
3 295 357 358
3 295 358 295
3 295 358 358
3 295 358 296
3 296 358 359
3 296 359 296
3 296 359 359
3 296 359 297
3 297 359 360
3 297 360 297
3 297 360 360
3 297 360 298
3 298 360 361
3 298 361 298
3 298 361 361
3 298 361 299
3 299 361 362
3 299 362 299
3 299 362 362
3 299 362 300
3 300 362 363
3 300 363 300
3 300 363 363
3 300 363 301
3 301 363 364
3 301 364 301
3 301 364 364
3 301 364 302
3 302 364 365
3 302 365 302
3 302 365 365
3 302 365 303
3 303 365 366
3 303 366 303
3 303 366 366
3 303 366 304
3 304 366 367
3 304 367 304
3 304 367 367
3 304 367 305
3 305 367 368
3 305 368 305
3 305 368 368
3 305 368 306
3 306 368 369
3 306 369 306
3 306 369 369
3 306 369 307
3 307 369 370
3 307 370 307
3 307 370 370
3 307 370 308
3 308 370 371
3 308 371 308
3 308 371 371
3 308 371 309
3 309 371 372
3 309 372 309
3 309 372 372
3 309 372 310
3 310 372 373
3 310 373 310
3 310 373 373
3 310 373 311
3 311 373 374
3 311 374 311
3 311 374 374
3 311 374 312
3 312 374 375
3 312 375 312
3 312 375 375
3 312 375 313
3 313 375 376
3 313 376 313
3 313 376 376
3 313 376 314
3 314 376 377
3 314 377 314
3 314 377 377
3 314 377 315
3 315 377 377
3 315 377 315
3 315 377 377
3 315 377 316
3 316 377 377
3 316 377 317
3 317 377 378
3 317 378 317
3 317 378 377
3 317 377 317
3 377 444 445
3 377 445 378
3 378 445 445
3 378 445 379
3 379 445 446
3 379 446 379
3 379 446 446
3 379 446 380
3 380 446 447
3 380 447 380
3 380 447 447
3 380 447 381
3 381 447 448
3 381 448 381
3 381 448 448
3 381 448 382
3 382 448 449
3 382 449 382
3 382 449 449
3 382 449 383
3 383 449 450
3 383 450 383
3 383 450 450
3 383 450 384
3 384 450 451
3 384 451 384
3 384 451 451
3 384 451 385
3 385 451 452
3 385 452 385
3 385 452 452
3 385 452 386
3 386 452 453
3 386 453 386
3 386 453 453
3 386 453 387
3 387 453 454
3 387 454 387
3 387 454 454
3 387 454 388
3 388 454 455
3 388 455 388
3 388 455 455
3 388 455 389
3 389 455 456
3 389 456 389
3 389 456 456
3 389 456 390
3 390 456 457
3 390 457 390
3 390 457 457
3 390 457 391
3 391 457 458
3 391 458 391
3 391 458 458
3 391 458 392
3 392 458 459
3 392 459 392
3 392 459 459
3 392 459 393
3 393 459 459
3 393 459 394
3 394 459 459
3 394 459 395
3 395 459 459
3 395 459 396
3 396 459 460
3 396 460 396
3 396 460 460
3 396 460 397
3 397 460 460
3 397 460 398
3 398 460 460
3 398 460 399
3 399 460 461
3 399 461 399
3 399 461 461
3 399 461 400
3 400 461 462
3 400 462 400
3 400 462 462
3 400 462 401
3 401 462 463
3 401 463 401
3 401 463 463
3 401 463 402
3 402 463 463
3 402 463 403
3 403 463 464
3 403 464 403
3 403 464 464
3 403 464 404
3 404 464 465
3 404 465 404
3 404 465 465
3 404 465 405
3 405 465 466
3 405 466 405
3 405 466 466
3 405 466 406
3 406 466 467
3 406 467 406
3 406 467 467
3 406 467 407
3 407 467 467
3 407 467 408
3 408 467 468
3 408 468 408
3 408 468 468
3 408 468 409
3 409 468 469
3 409 469 409
3 409 469 469
3 409 469 410
3 410 469 411
3 410 411 410
3 410 411 411
3 410 411 353
3 353 411 412
3 353 412 353
3 353 412 412
3 353 412 354
3 354 412 413
3 354 413 354
3 354 413 413
3 354 413 355
3 355 413 414
3 355 414 355
3 355 414 414
3 355 414 356
3 356 414 415
3 356 415 356
3 356 415 415
3 356 415 357
3 357 415 416
3 357 416 357
3 357 416 416
3 357 416 358
3 358 416 417
3 358 417 358
3 358 417 417
3 358 417 359
3 359 417 418
3 359 418 359
3 359 418 418
3 359 418 360
3 360 418 419
3 360 419 360
3 360 419 419
3 360 419 361
3 361 419 420
3 361 420 361
3 361 420 420
3 361 420 362
3 362 420 421
3 362 421 362
3 362 421 421
3 362 421 363
3 363 421 422
3 363 422 363
3 363 422 422
3 363 422 364
3 364 422 423
3 364 423 364
3 364 423 423
3 364 423 365
3 365 423 424
3 365 424 365
3 365 424 425
3 365 425 365
3 365 425 425
3 365 425 366
3 366 425 426
3 366 426 366
3 366 426 426
3 366 426 367
3 367 426 427
3 367 427 367
3 367 427 427
3 367 427 368
3 368 427 428
3 368 428 368
3 368 428 428
3 368 428 369
3 369 428 429
3 369 429 369
3 369 429 429
3 369 429 370
3 370 429 430
3 370 430 370
3 370 430 430
3 370 430 371
3 371 430 431
3 371 431 371
3 371 431 431
3 371 431 372
3 372 431 432
3 372 432 372
3 372 432 432
3 372 432 373
3 373 432 433
3 373 433 373
3 373 433 433
3 373 433 374
3 374 433 434
3 374 434 374
3 374 434 434
3 374 434 375
3 375 434 435
3 375 435 375
3 375 435 435
3 375 435 376
3 376 435 436
3 376 436 376
3 376 436 436
3 376 436 377
3 377 436 437
3 377 437 377
3 377 437 437
3 377 437 377
3 377 437 438
3 377 438 377
3 377 438 439
3 377 439 377
3 377 439 440
3 377 440 377
3 377 440 441
3 377 441 377
3 377 441 442
3 377 442 377
3 377 442 443
3 377 443 377
3 377 443 444
3 377 444 377
3 377 444 445
3 377 445 377
3 377 445 444
3 377 444 377
3 444 502 503
3 444 503 445
3 445 503 504
3 445 504 446
3 446 504 504
3 446 504 447
3 447 504 505
3 447 505 447
3 447 505 505
3 447 505 448
3 448 505 506
3 448 506 448
3 448 506 506
3 448 506 449
3 449 506 507
3 449 507 449
3 449 507 507
3 449 507 450
3 450 507 508
3 450 508 450
3 450 508 508
3 450 508 451
3 451 508 509
3 451 509 451
3 451 509 509
3 451 509 452
3 452 509 510
3 452 510 452
3 452 510 510
3 452 510 453
3 453 510 511
3 453 511 453
3 453 511 511
3 453 511 454
3 454 511 512
3 454 512 454
3 454 512 512
3 454 512 455
3 455 512 513
3 455 513 455
3 455 513 514
3 455 514 456
3 456 514 515
3 456 515 457
3 457 515 516
3 457 516 458
3 458 516 517
3 458 517 459
3 459 517 518
3 459 518 460
3 460 518 519
3 460 519 461
3 461 519 520
3 461 520 461
3 461 520 520
3 461 520 462
3 462 520 521
3 462 521 462
3 462 521 521
3 462 521 463
3 463 521 521
3 463 521 464
3 464 521 522
3 464 522 464
3 464 522 522
3 464 522 465
3 465 522 523
3 465 523 465
3 465 523 523
3 465 523 466
3 466 523 524
3 466 524 466
3 466 524 524
3 466 524 467
3 467 524 525
3 467 525 467
3 467 525 526
3 467 526 468
3 468 526 527
3 468 527 468
3 468 527 527
3 468 527 469
3 469 527 470
3 469 470 469
3 469 470 470
3 469 470 411
3 411 470 471
3 411 471 411
3 411 471 471
3 411 471 412
3 412 471 472
3 412 472 412
3 412 472 472
3 412 472 413
3 413 472 473
3 413 473 414
3 414 473 474
3 414 474 415
3 415 474 475
3 415 475 416
3 416 475 476
3 416 476 416
3 416 476 476
3 416 476 417
3 417 476 477
3 417 477 418
3 418 477 478
3 418 478 419
3 419 478 479
3 419 479 420
3 420 479 480
3 420 480 421
3 421 480 481
3 421 481 422
3 422 481 482
3 422 482 423
3 423 482 483
3 423 483 424
3 424 483 484
3 424 484 425
3 425 484 485
3 425 485 425
3 425 485 485
3 425 485 426
3 426 485 486
3 426 486 427
3 427 486 487
3 427 487 428
3 428 487 488
3 428 488 428
3 428 488 488
3 428 488 429
3 429 488 489
3 429 489 430
3 430 489 490
3 430 490 431
3 431 490 491
3 431 491 432
3 432 491 492
3 432 492 432
3 432 492 492
3 432 492 433
3 433 492 493
3 433 493 433
3 433 493 493
3 433 493 434
3 434 493 494
3 434 494 434
3 434 494 494
3 434 494 435
3 435 494 495
3 435 495 436
3 436 495 495
3 436 495 437
3 437 495 496
3 437 496 437
3 437 496 496
3 437 496 438
3 438 496 497
3 438 497 438
3 438 497 497
3 438 497 439
3 439 497 498
3 439 498 439
3 439 498 498
3 439 498 440
3 440 498 499
3 440 499 440
3 440 499 499
3 440 499 441
3 441 499 500
3 441 500 441
3 441 500 500
3 441 500 442
3 442 500 501
3 442 501 442
3 442 501 501
3 442 501 443
3 443 501 502
3 443 502 443
3 443 502 502
3 443 502 444
3 444 502 502
3 444 502 444
3 444 502 503
3 444 503 444
3 444 503 502
3 444 502 444
3 502 554 555
3 502 555 503
3 503 555 556
3 503 556 503
3 503 556 556
3 503 556 504
3 504 556 557
3 504 557 504
3 504 557 557
3 504 557 505
3 505 557 558
3 505 558 505
3 505 558 558
3 505 558 506
3 506 558 559
3 506 559 506
3 506 559 559
3 506 559 507
3 507 559 560
3 507 560 507
3 507 560 560
3 507 560 508
3 508 560 561
3 508 561 508
3 508 561 561
3 508 561 509
3 509 561 562
3 509 562 509
3 509 562 562
3 509 562 510
3 510 562 563
3 510 563 510
3 510 563 563
3 510 563 511
3 511 563 564
3 511 564 511
3 511 564 564
3 511 564 512
3 512 564 565
3 512 565 512
3 512 565 565
3 512 565 513
3 513 565 566
3 513 566 513
3 513 566 566
3 513 566 514
3 514 566 567
3 514 567 514
3 514 567 567
3 514 567 515
3 515 567 568
3 515 568 515
3 515 568 568
3 515 568 516
3 516 568 569
3 516 569 516
3 516 569 570
3 516 570 516
3 516 570 571
3 516 571 516
3 516 571 571
3 516 571 517
3 517 571 572
3 517 572 517
3 517 572 573
3 517 573 517
3 517 573 574
3 517 574 517
3 517 574 574
3 517 574 518
3 518 574 575
3 518 575 518
3 518 575 576
3 518 576 518
3 518 576 576
3 518 576 519
3 519 576 577
3 519 577 519
3 519 577 577
3 519 577 520
3 520 577 578
3 520 578 520
3 520 578 579
3 520 579 520
3 520 579 579
3 520 579 521
3 521 579 580
3 521 580 521
3 521 580 580
3 521 580 522
3 522 580 581
3 522 581 522
3 522 581 581
3 522 581 523
3 523 581 582
3 523 582 523
3 523 582 582
3 523 582 524
3 524 582 583
3 524 583 524
3 524 583 583
3 524 583 525
3 525 583 584
3 525 584 525
3 525 584 584
3 525 584 526
3 526 584 585
3 526 585 526
3 526 585 585
3 526 585 527
3 527 585 586
3 527 586 527
3 527 586 586
3 527 586 470
3 470 586 587
3 470 587 470
3 470 587 587
3 470 587 471
3 471 587 588
3 471 588 471
3 471 588 528
3 471 528 471
3 471 528 528
3 471 528 472
3 472 528 529
3 472 529 472
3 472 529 529
3 472 529 473
3 473 529 530
3 473 530 473
3 473 530 530
3 473 530 474
3 474 530 531
3 474 531 474
3 474 531 531
3 474 531 475
3 475 531 532
3 475 532 475
3 475 532 532
3 475 532 476
3 476 532 532
3 476 532 477
3 477 532 533
3 477 533 477
3 477 533 533
3 477 533 478
3 478 533 534
3 478 534 478
3 478 534 535
3 478 535 478
3 478 535 535
3 478 535 479
3 479 535 536
3 479 536 479
3 479 536 536
3 479 536 480
3 480 536 537
3 480 537 480
3 480 537 537
3 480 537 481
3 481 537 538
3 481 538 481
3 481 538 538
3 481 538 482
3 482 538 539
3 482 539 482
3 482 539 539
3 482 539 483
3 483 539 540
3 483 540 483
3 483 540 540
3 483 540 484
3 484 540 541
3 484 541 484
3 484 541 541
3 484 541 485
3 485 541 542
3 485 542 485
3 485 542 542
3 485 542 486
3 486 542 543
3 486 543 486
3 486 543 543
3 486 543 487
3 487 543 544
3 487 544 487
3 487 544 544
3 487 544 488
3 488 544 545
3 488 545 488
3 488 545 545
3 488 545 489
3 489 545 546
3 489 546 489
3 489 546 546
3 489 546 490
3 490 546 547
3 490 547 490
3 490 547 547
3 490 547 491
3 491 547 548
3 491 548 491
3 491 548 548
3 491 548 492
3 492 548 549
3 492 549 492
3 492 549 549
3 492 549 493
3 493 549 550
3 493 550 493
3 493 550 550
3 493 550 494
3 494 550 551
3 494 551 494
3 494 551 551
3 494 551 495
3 495 551 552
3 495 552 495
3 495 552 552
3 495 552 496
3 496 552 553
3 496 553 496
3 496 553 553
3 496 553 497
3 497 553 554
3 497 554 497
3 497 554 554
3 497 554 498
3 498 554 554
3 498 554 498
3 498 554 554
3 498 554 499
3 499 554 554
3 499 554 500
3 500 554 554
3 500 554 501
3 501 554 554
3 501 554 502
3 502 554 555
3 502 555 502
3 502 555 554
3 502 554 502
